<svg xmlns="http://www.w3.org/2000/svg" width="327" height="476" fill="none"><mask id="a" width="326" height="473" x="0" y="3" maskUnits="userSpaceOnUse" style="mask-type:luminance"><path fill="#fff" d="M.333 3.333h325.334v472H.333v-472z"/></mask><g mask="url(#a)"><mask id="b" width="351" height="479" x="-9" y="-2" maskUnits="userSpaceOnUse" style="mask-type:luminance"><path fill="#fff" d="m7.969-1.39 333.708 11.687-16.344 466.588-333.708-11.687L7.969-1.391z"/></mask><g mask="url(#b)"><mask id="c" width="351" height="479" x="-9" y="-2" maskUnits="userSpaceOnUse" style="mask-type:luminance"><path fill="#fff" d="M341.708 10.297 8-1.391-8.344 465.198l333.709 11.687 16.343-466.588z"/></mask><g mask="url(#c)"><mask id="d" width="351" height="479" x="-9" y="-2" maskUnits="userSpaceOnUse" style="mask-type:luminance"><path fill="#fff" d="M341.708 10.297 8-1.391-8.344 465.198l333.709 11.687 16.343-466.588z"/></mask><g mask="url(#d)"><path fill="#BBFFED" d="M11.959 297.068c37.156-46.078 49.088-43.636 76.624-61.224.26-.156.542-.224.844-.214.302.011.578.099.823.271 7.823-8.927 16.854-17.922 26.87-24.229-5.406-13.344-4.453-11.615-4.865-11.537-14.104 6.433-26 16.438-38.833 24.808-20.719 13.531-45.64 23.479-70.698 24.245-.547-.042-.917-.323-1.104-.844-.193-.516-.089-.969.307-1.354 9.308-6.662 19.964-10.865 30.604-14.834 11.396-4.265 47.235-17.338 53.72-19.942a1.322 1.322 0 0 1 1.062.036c.536-.375 12.25-9.12 23.817-14.417.829-.692 1.151 2.651-4.208-12.979-13.219 4.682-22.495 12.938-38.52 21.073C46.411 217.089 25 222.745 2.5 225.359c-1.114.131-2.208-1.401-1.146-2.218 18.542-14.438 41.526-21.006 64.183-26.469 21.63-5.219 20.692-5.047 21.38-4.573 6.073-3.771 12.182-7.276 18.995-9.693.239-.047.604 1.282-3.714-11.411-32.02 8.927-53.542 27.573-95.114 19.041a1.22 1.22 0 0 1-.589-.432 1.208 1.208 0 0 1-.25-.693 1.247 1.247 0 0 1 .714-1.208c44.099-17.333 70.99-12.432 79.567-14.135a208.89 208.89 0 0 1 14.917-5.068c-3.198-9.76-3.797-12.714-4.052-12.656-21.948-3.005-45.552 12.781-66.584.411-.427-.271-.62-.661-.583-1.161.037-.5.287-.854.745-1.063 13.562-7.812 29.984-7.135 44.786-3.968 4.396.947 8.76 2.234 13.24 1.88.318-.026.61.047.87.224.265.172.448.411.547.713a36.257 36.257 0 0 1 6.187.328C80.922 98.99 75.99 52.031 76.735 5.005c.057-1.656 2.588-1.484 2.567.188-.75 54.974 6.542 104.26 22.125 155 .797-1.214 1.698-.261 7.839.692l.255-.057c9.167-.536 17.849-3.776 26.693-6a79.038 79.038 0 0 1 19.828-2.489 79 79 0 0 1 19.818 2.536c.276.099.494.271.651.516.161.244.229.515.203.807-.021.292-.13.542-.328.76a1.239 1.239 0 0 1-.724.407c-39.24 8.005-44.282 10.776-73.662 4.812 1.557 5.109 3.266 10.099 4.974 15.094 1.057-.833.943-.193 11.391 2.26 22.213-1.338 45.406-12.208 68.036-2.797.266.105.479.276.63.521.151.245.219.511.198.797-.026.287-.13.542-.323.755a1.27 1.27 0 0 1-.708.417c-31.807 6.687-36.771 11.458-78.338.25 4.369 12.839 8.062 21.865 8.661 23.448a.941.941 0 0 1 .677-.136c3.656.422 7.281.537 10.833.782.266-.255.579-.375.948-.365 9.735.563 19.105-2.875 28.349-5.635 12.25-3.657 25.167-6 36.078.583 1.089.662.5 2.01-.484 2.375-29.016 10.771-34.786 8.104-75.484 4.912.14.234.208.572.349.812a507.487 507.487 0 0 0 6.614 15.896c.875-1.313 1.99-.136 11.662 1.406 19.692.042 37.432-13.078 58.328-11.432 5.057.344 9.781 1.781 14.172 4.323 1.099.651.489 2.01-.485 2.364-29.427 10.896-47.312 12.703-82.843 5.266a782.693 782.693 0 0 0 8.052 17.792c2.651.208 5.286.552 7.906 1.031.276-.229.588-.323.943-.276 31.177 3.166 60.448-17.328 91.583-5.526.266.104.479.281.63.526.156.239.219.505.198.797-.026.286-.13.536-.323.755a1.292 1.292 0 0 1-.703.417c-18.901 5.182-38.349 11.135-58.651 10.697-14.5-.312-27-4.171-40.177-5.713 2.557 5.26 5.088 10.432 7.703 15.594 3.948-.792 25.865 3.703 50.13 1.255 18.255-1.854 37.209-10.521 55.834-3.833.239.083.437.229.588.432.151.208.234.437.25.693.016.255-.047.489-.177.713-.13.219-.307.386-.536.495-7.105 2.547-14.24 5.318-21.573 7.151-30.401 7.604-50.605-2.708-83.131-4.385a977.158 977.158 0 0 0 11.98 22.515c.088-.364.291-.646.609-.849.312-.198.656-.26 1.021-.187 4.312.963 8.698 1.916 13.078 2.791.271-.255.588-.406.953-.463 19.354-.755 33.24-10.844 65.401-12.328a135.333 135.333 0 0 1 18.5.203c1.162.104 1.703 1.922.495 2.443-26.688 11.052-32.865 13.109-38.88 14.39-19.854 4.365-40.724-.177-60.349-4.614 4 7.239 8.88 15.349 10.614 18.328a182.413 182.413 0 0 0 19.938 4.26c26.161-3.005 56.765-13.693 83.114-5.224 1.318.417.959 2.156-.203 2.49-33.781 9.536-66.989 10.109-101.099 1.51 8.86 14.833 12.381 19.25 22.006 21.011 3.447.635 10.093 1.026 10.177 1.01 27.062-4.766 51.807-14.76 79.432-7.901 1.375.344.958 2.156-.203 2.49-14.729 4.192-29.49 8.645-44.901 9.416-10.485.568-40.417-1.625-44.87-2.5a25.619 25.619 0 0 1-9.297-3.541c2.464 3.963 4.995 7.817 7.63 11.75.235.083.438.218.61.406a26.325 26.325 0 0 0 6.187 5.557 26.54 26.54 0 0 0 7.599 3.38c12.844 3.37 30.745-2.885 41-4.948a92.695 92.695 0 0 1 20.281-1.718 92.786 92.786 0 0 1 20.172 2.734c1.011.24 1.198 2.026.125 2.333-14.526 5.235-25.599 9.302-41.302 8.006-6.76-.563-13.344-1.933-20.104-2.5-9.974-.844-19.135 1.416-29.188-5.042 6.933 10.057 9.917 14.005 11.011 15.536.083-.156.193-.281.333-.385a1.2 1.2 0 0 1 .464-.208c.172-.037.344-.032.51.01.172.042.323.115.459.224 6.166 4.203 13.364 5.531 20.692 6.318.25-.172.526-.256.834-.25 22.755-.834 46.937-8.901 69.947-.349.271.104.485.276.636.521.156.244.219.51.198.796a1.235 1.235 0 0 1-.318.756 1.263 1.263 0 0 1-.703.421c-36.453 9.641-42.859 4.464-59.359 2.011-10.209-1.521-22.016-1.151-31.287-6.688a489.097 489.097 0 0 0 12.985 16.631c.312-.084.625-.073.932.031a110.477 110.477 0 0 0 22.541 8.792c28.417 1.177 55.87-12.422 73.86-1.693.213.146.375.344.469.588a1.295 1.295 0 0 1-.287 1.422 1.285 1.285 0 0 1-.667.36c-6.671.791-12.223 2.88-20.567 4.323a121.396 121.396 0 0 1-37.016.796 120.582 120.582 0 0 1-18.161-3.833 121.4 121.4 0 0 1-17.37-6.552c3.068 3.927 9.125 10.5 12.245 13.807 1.104.297 3.635 5.026 14.922 8.089 30.765 8.323 57.656-2.016 72.52 16.328.214.245.323.531.323.859.006.323-.104.61-.317.854a1.26 1.26 0 0 1-.802.443 1.276 1.276 0 0 1-.891-.198c-10.474-5.812-28.162 5.25-62.594-12.729a1.089 1.089 0 0 1-.5-.516 1.089 1.089 0 0 1-.073-.713c-4.979-.734-9.812-2-14.51-3.813 11.765 11.891 12.791 12.636 22.693 17.719 4.786 2.443 9.552 4.818 14.109 7.474 23.708 13.792 25.13 25.063 34.406 37.099.823 1.063-.474 2.912-1.719 1.927-15.182-12.094-33.27-14.594-53.25-39.594-6.187-7.76-9.38-14.38-9.911-14.885-6.953-6.536-20.26-20.573-22.5-23.161a78.869 78.869 0 0 1 2.828 9.666c.125.078.229.172.318.292 12.578 13.646 18.885 31.609 21.932 49.625.922 5.505 1.568 11.078 4.443 16.005.786 1.333-1.078 2.406-2.063 1.464-21.114-20.25-23.843-52.302-26.979-66.016-1.417-6.182-3.297-12.375-6.516-17.943a410.75 410.75 0 0 1-20.395-26.062 132.743 132.743 0 0 1 4.974 24.193c12.39 15.432 14.119 36.338 16.838 55.208.906 6.286 1.854 12.578 2.677 18.88.151 1.188-1.385 2.198-2.224 1.146-24.672-31.172-12.583-74.734-28.37-108.011-6.052-8.75-11.963-17.619-17.609-26.541.787 8.677.328 17.255-.359 25.969.291-.115.583-.11.864.026.287.13.479.343.584.64 11.906 26.818 16.218 56.959 11.453 89.188-.183 1.26-2.448 1.713-2.505.156-1.511-16.5-10.323-31.182-13.365-47.354-4.583-23.995 4.25-47.823.068-73.75-2.448-3.88-11.745-19.146-13.886-22.86.625 11.334-.984 22.417-3.484 33.443-1.886 35.724 6.073 70.13-5.349 103.078a1.228 1.228 0 0 1-.646.74 1.228 1.228 0 0 1-.984.068 1.231 1.231 0 0 1-.74-.646 1.252 1.252 0 0 1-.073-.985c1.552-4.505-13.047-16.088-6.474-54.755 4.703-27.802 17.016-53.588 15.078-82.995a1.255 1.255 0 0 1 .157-.75c.13-.234.312-.411.552-.531-2.641-4.536-5.183-9.187-7.782-13.828-1.093 8.448-3.63 16.656-6.208 24.698-10.193 31.802-7.583 33.901-12.396 57.364-4.271 20.818-13.812 38.579-23.63 57.167a1.251 1.251 0 0 1-.667.469c-.27.083-.546.078-.812-.021a1.255 1.255 0 0 1-.646-.5 1.238 1.238 0 0 1-.219-.781c6.844-46.636 11.021-50.276 30.74-98.146.088-.266.25-.474.49-.62 3.729-13.609 9.755-27.484 11.239-42.687.172-1.782 1.761 2.984-8.307-16.865-4.11 9.177-8.287 18.302-12.307 27.417-10.131 22.953-12.277 37.635-18.068 57.01-6.896 23.063-14.87 35.313-28.943 56.396-.167.229-.39.391-.667.474a1.259 1.259 0 0 1-.817-.01 1.282 1.282 0 0 1-.651-.506 1.283 1.283 0 0 1-.224-.786 156.629 156.629 0 0 1 9.86-37.88c5.213-13.203 10.593-22.516 30.369-59.308.01-.187.213-.229.286-.328 4.797-13.468 6.573-16.812 19.573-45.583-1.463-2.943-2.922-5.797-4.297-8.755-39.843 63.239-43.38 95.979-71.13 127.078-.854.958-2.49-.203-2.125-1.412 20.448-51.276 21.172-54.578 26.193-62.234 8.36-12.755 28.052-37.854 28.901-38.021a484.709 484.709 0 0 1 16.713-28.13c-1.484-3.026-2.89-6.068-4.296-9.109-18.49 22.099-41.573 81.052-86.657 112.849-.25.203-.536.307-.859.302a1.243 1.243 0 0 1-.844-.334 1.258 1.258 0 0 1-.427-.802 1.272 1.272 0 0 1 .203-.885c15.01-29.13 43.485-62.542 66.886-84.266.369-.364.791-.448 1.271-.255.635-1.177 1.354-2.292 1.984-3.469 4.979-9.036 10.396-17.844 17.208-25.687-.786-1.766-1.599-3.62-2.39-5.38-39.86 23.177-51.615 78.364-94.48 98.848a1.302 1.302 0 0 1-1.536-.291 1.292 1.292 0 0 1-.151-1.557c16.661-31.589 42.62-53.98 68.75-77.646.328-.323.714-.433 1.161-.323 7.412-8.318 14.433-15.156 25.068-21.417-1.614-3.698-6.042-13.911-6.588-15.292-32.271 20.422-40.5 57.834-104.396 84.844-1.193.542-2.672-.656-1.755-1.786z"/></g></g></g></g><mask id="e" width="324" height="473" x="3" y="0" maskUnits="userSpaceOnUse" style="mask-type:luminance"><path fill="#fff" d="M3 .667h324v472H3v-472z"/></mask><g mask="url(#e)"><mask id="f" width="351" height="479" x="-9" y="-2" maskUnits="userSpaceOnUse" style="mask-type:luminance"><path fill="#fff" d="m7.969-1.39 333.708 11.687-16.344 466.588-333.708-11.687L7.969-1.391z"/></mask><g mask="url(#f)"><mask id="g" width="351" height="479" x="-9" y="-2" maskUnits="userSpaceOnUse" style="mask-type:luminance"><path fill="#fff" d="M341.708 10.297 8-1.391-8.344 465.198l333.709 11.687 16.343-466.588z"/></mask><g mask="url(#g)"><mask id="h" width="351" height="479" x="-9" y="-2" maskUnits="userSpaceOnUse" style="mask-type:luminance"><path fill="#fff" d="M341.708 10.297 8-1.391-8.344 465.198l333.709 11.687 16.343-466.588z"/></mask><g mask="url(#h)"><path fill="#7A28FF" d="M14.458 294.74c37.14-46.068 49.084-43.636 76.615-61.214a1.55 1.55 0 0 1 1.667.057c7.817-8.916 16.854-17.916 26.864-24.229-5.406-13.333-4.443-11.604-4.864-11.526-14.099 6.432-25.995 16.438-38.834 24.807-20.719 13.532-45.635 23.48-70.693 24.245-.552-.047-.921-.328-1.109-.844-.187-.52-.083-.974.307-1.359 9.308-6.656 19.964-10.859 30.605-14.833 11.395-4.261 47.234-17.334 53.724-19.943a1.28 1.28 0 0 1 1.062.042c.531-.375 12.245-9.12 23.818-14.422.823-.688 1.146 2.651-4.209-12.974-13.218 4.682-22.51 12.932-38.536 21.073-21.984 11.161-43.401 16.817-65.901 19.422-1.115.13-2.208-1.391-1.14-2.214 18.572-14.406 41.603-20.974 64.213-26.437 21.63-5.219 20.693-5.042 21.385-4.584 6.073-3.755 12.183-7.26 18.99-9.682.255-.047.609 1.281-3.703-11.411-32.016 8.921-53.542 27.578-95.12 19.046a1.276 1.276 0 0 1-.594-.437 1.29 1.29 0 0 1-.25-.693 1.271 1.271 0 0 1 .719-1.208c44.099-17.333 71-12.427 79.573-14.13 4.87-1.865 9.86-3.573 14.911-5.073-3.203-9.761-3.797-12.709-4.041-12.651-21.959-3.011-45.553 12.776-66.6.406-.421-.271-.614-.656-.578-1.162.037-.5.282-.854.74-1.062 13.563-7.813 29.99-7.135 44.792-3.969 4.396.948 8.76 2.24 13.24 1.88.317-.026.604.047.87.224.265.172.447.412.54.714a36.245 36.245 0 0 1 6.194.328C83.443 96.708 78.505 49.755 79.245 2.729c.062-1.661 2.599-1.484 2.567.182-.75 54.98 6.542 104.261 22.131 155 .807-1.213 1.698-.255 7.833.693l.255-.057c9.167-.537 17.849-3.771 26.703-6a79.063 79.063 0 0 1 19.823-2.495c6.714.01 13.323.854 19.818 2.542a1.298 1.298 0 0 1 .526 2.083 1.252 1.252 0 0 1-.724.406c-39.24 8.006-44.281 10.776-73.661 4.808 1.557 5.114 3.265 10.109 4.974 15.088 1.052-.828.937-.193 11.39 2.266 22.214-1.339 45.412-12.209 68.031-2.802.271.104.48.281.636.521.151.244.219.51.193.796a1.285 1.285 0 0 1-1.027 1.172c-31.807 6.683-36.77 11.459-78.338.25 4.432 12.834 8.099 21.896 8.672 23.443a.9.9 0 0 1 .672-.146c3.672.427 7.286.547 10.838.792.261-.255.578-.38.943-.37 9.745.568 19.109-2.87 28.354-5.635 12.25-3.651 25.162-5.995 36.078.583 1.094.667.495 2.016-.484 2.38-29.016 10.771-34.787 8.104-75.485 4.906.141.24.204.579.344.818a484.58 484.58 0 0 0 6.625 15.891c.865-1.313 1.979-.141 11.651 1.406 19.709-.005 37.438-13.146 58.334-11.484a32.167 32.167 0 0 1 14.171 4.323c1.099.651.5 2-.484 2.369-29.427 10.881-47.302 12.698-82.844 5.261a789.475 789.475 0 0 0 8.052 17.791c2.651.209 5.287.552 7.907 1.032.276-.235.588-.323.942-.276 31.167 3.161 60.448-17.329 91.537-5.526a1.3 1.3 0 0 1 .515 2.072c-.187.219-.427.36-.708.417-18.906 5.177-38.354 11.141-58.646 10.703-14.51-.312-27.01-4.172-40.177-5.718 2.547 5.265 5.078 10.437 7.693 15.598 3.958-.796 25.865 3.704 50.13 1.25 18.255-1.848 37.208-10.515 55.833-3.833a1.27 1.27 0 0 1 .839 1.13 1.21 1.21 0 0 1-.177.709 1.24 1.24 0 0 1-.537.5c-7.104 2.547-14.239 5.317-21.572 7.146-30.396 7.609-50.594-2.704-83.131-4.381a944.232 944.232 0 0 0 11.98 22.5c.088-.359.291-.64.609-.838a1.334 1.334 0 0 1 1.021-.183c4.312.964 8.698 1.917 13.078 2.777.276-.24.588-.391.953-.448 19.354-.761 33.25-10.844 65.406-12.329a136.225 136.225 0 0 1 18.495.198c1.161.11 1.703 1.927.495 2.433-26.641 11.067-32.839 13.078-38.844 14.427-19.854 4.364-40.724-.177-60.349-4.615 4.011 7.235 8.88 15.349 10.625 18.328a181.69 181.69 0 0 0 19.938 4.276c26.166-3.005 56.765-13.692 83.109-5.224 1.318.417.958 2.157-.198 2.49-33.786 9.536-66.995 10.109-101.104 1.51 8.864 14.839 12.385 19.25 22.01 21.011 3.448.635 10.094 1.026 10.177 1.01 27.089-4.786 51.808-14.781 79.422-7.922 1.375.349.959 2.162-.203 2.495-14.729 4.188-29.479 8.641-44.901 9.417-10.484.521-40.417-1.63-44.87-2.505a25.4 25.4 0 0 1-9.286-3.552 397.498 397.498 0 0 0 7.62 11.765c.234.078.442.214.609.401a26.443 26.443 0 0 0 6.188 5.563 26.648 26.648 0 0 0 7.609 3.38c12.844 3.375 30.698-2.88 41.026-4.953a93.307 93.307 0 0 1 20.281-1.709 93.485 93.485 0 0 1 20.172 2.735c1.021.234 1.208 2.031.125 2.338-14.526 5.203-25.599 9.271-41.255 7.98-6.771-.563-13.354-1.933-20.11-2.506-9.979-.854-19.14 1.417-29.192-5.041 6.932 10.062 9.916 14.005 11.01 15.536.084-.156.193-.281.334-.391.14-.104.296-.171.468-.208.167-.031.339-.031.511.011.166.046.317.119.453.229 6.166 4.208 13.37 5.521 20.708 6.323a1.32 1.32 0 0 1 .818-.256c22.755-.833 46.937-8.895 69.953-.343.266.104.479.276.63.521.156.244.219.51.198.796-.026.287-.13.542-.318.756a1.257 1.257 0 0 1-.708.416c-36.458 9.641-42.859 4.464-59.365 2.005-10.203-1.515-22.01-1.156-31.276-6.687a487.35 487.35 0 0 0 12.98 16.625c.312-.078.625-.068.932.036a110.029 110.029 0 0 0 22.609 8.818c28.412 1.182 55.875-12.427 73.854-1.703.214.151.37.349.469.594.099.245.12.5.068.755a1.26 1.26 0 0 1-.359.667 1.272 1.272 0 0 1-.662.364c-6.667.792-12.224 2.88-20.568 4.323a121.39 121.39 0 0 1-55.244-3.01A121.934 121.934 0 0 1 227 385.156c3.062 3.927 9.12 10.49 12.24 13.797 1.109.307 3.635 5.042 14.932 8.104 30.729 8.271 57.63-2.057 72.515 16.292.198.245.292.531.282.849-.006.318-.12.599-.334.833-.208.24-.474.38-.791.422a1.263 1.263 0 0 1-.875-.187c-10.474-5.813-28.162 5.239-62.594-12.73a1.05 1.05 0 0 1-.495-.5 1.075 1.075 0 0 1-.099-.697c-4.979-.73-9.812-2-14.505-3.808 11.76 11.891 12.786 12.636 22.693 17.719 4.781 2.437 9.547 4.807 14.109 7.474 23.677 13.786 25.099 25.062 34.349 37.057.823 1.068-.474 2.912-1.708 1.927-15.12-12.052-33.229-14.552-53.183-39.593-6.198-7.672-9.385-14.313-9.916-14.844-6.953-6.537-20.261-20.573-22.5-23.162a79.986 79.986 0 0 1 2.823 9.667c.119.078.229.172.312.286 12.578 13.646 18.886 31.615 21.932 49.631.928 5.494 1.579 11.078 4.454 16.005.776 1.333-1.089 2.406-2.063 1.469-21.12-20.292-23.88-52.349-26.979-66.058-1.417-6.192-3.297-12.375-6.516-17.942-7.109-8.36-13.953-17.131-20.396-26.063a131.654 131.654 0 0 1 4.974 24.193c12.396 15.432 14.125 36.338 16.839 55.208.906 6.287 1.854 12.578 2.677 18.88.151 1.188-1.385 2.198-2.224 1.146-24.635-31.172-12.547-74.708-28.37-107.984-6.052-8.75-11.963-17.62-17.609-26.542.786 8.677.328 17.255-.359 25.969.291-.115.583-.104.864.026.287.13.479.344.583.641 11.907 26.807 16.23 56.958 11.454 89.187-.183 1.266-2.448 1.714-2.506.156-1.489-16.494-10.239-31.177-13.328-47.349-4.583-24 4.25-47.828.068-73.75-2.448-3.88-11.74-19.151-13.885-22.859.625 11.339-.985 22.422-3.485 33.438-1.885 35.723 6.073 70.135-5.344 103.078-.13.317-.349.547-.656.692-.312.141-.63.157-.953.047a1.242 1.242 0 0 1-.724-.614 1.264 1.264 0 0 1-.104-.943c1.547-4.505-13.057-16.094-6.474-54.755 4.703-27.808 17.016-53.589 15.088-83.005a1.233 1.233 0 0 1 .152-.745c.125-.235.307-.407.546-.526-2.64-4.542-5.182-9.198-7.781-13.828-1.094 8.447-3.63 16.656-6.208 24.692-10.198 31.808-7.573 33.901-12.396 57.365-4.271 20.818-13.802 38.583-23.63 57.172-.558 1.078-2.531.422-2.349-.839 6.849-46.635 11.021-50.271 30.755-98.146.083-.26.24-.468.479-.614 3.729-13.61 9.755-27.49 11.24-42.688.172-1.781 1.76 2.979-8.308-16.864-4.109 9.177-8.286 18.297-12.307 27.411-10.13 22.953-12.265 37.636-18.068 57.011-6.895 23.067-14.87 35.317-28.942 56.395-.167.24-.39.401-.667.485a1.242 1.242 0 0 1-.823-.016 1.284 1.284 0 0 1-.86-1.307 156.39 156.39 0 0 1 9.85-37.875c5.135-13.208 10.479-22.495 30.297-59.287.005-.187.213-.224.281-.323 4.807-13.484 6.583-16.812 19.578-45.593-1.464-2.933-2.911-5.792-4.302-8.745-39.813 63.229-43.349 95.969-71.099 127.094-.854.958-2.495-.198-2.125-1.407 20.448-51.276 21.172-54.583 26.193-62.234 8.354-12.76 28.052-37.859 28.896-38.026a486.28 486.28 0 0 1 16.718-28.125c-1.489-3.026-2.89-6.068-4.286-9.109-18.495 22.099-41.589 81.047-86.667 112.843a1.26 1.26 0 0 1-.86.302 1.256 1.256 0 0 1-.843-.328 1.258 1.258 0 0 1-.427-.807 1.27 1.27 0 0 1 .203-.885c15.005-29.131 43.484-62.542 66.896-84.261.161-.172.359-.276.588-.323.23-.047.454-.026.667.068.641-1.182 1.359-2.302 1.99-3.474 4.979-9.036 10.385-17.844 17.208-25.687-.797-1.771-1.609-3.62-2.406-5.381-39.854 23.177-51.61 78.37-94.474 98.849-.26.131-.531.167-.818.11a1.247 1.247 0 0 1-.719-.401 1.286 1.286 0 0 1-.151-1.558c16.724-31.578 42.688-53.963 68.776-77.635.328-.323.714-.427 1.162-.323 7.422-8.318 14.443-15.156 25.078-21.411-1.625-3.704-6.042-13.917-6.589-15.297-32.28 20.422-40.51 57.833-104.4 84.843-1.204.506-2.683-.692-1.803-1.796zm41.146-69.834c-17.432 6.401-33.99 11.938-45.719 19.292 26.068-1.761 51.646-14.188 72.828-29.219-9.036 3.224-18.072 6.62-27.109 9.927zm-46.146-4.922c27.042-3.453 51.026-12.489 74.162-26.614-24.047 5.724-52.709 11.515-74.162 26.614zm4.792-33.864c26.016 4.896 43.922-2.656 67.161-11.891-10.343.766-32.51-1.588-67.161 11.886v.005zm66.344-34.964c-15-3.323-30.188-4.786-43.896 1.948 14.219 7.193 32.364.818 46.515-1.427-.885-.219-1.791-.38-2.62-.568v.047zm80.614 4.901c3.448-.698 6.979-1.416 10.407-2.187-21.912-4.068-35.099 2.974-50.907 6.156 16.203 1.76 24.443-.776 40.5-4.016v.047zm22.558 19.438c-16.276-5.235-33.422 0-55.271 3.656 24.422 4.688 30.474 1.719 55.271-3.724v.068zm7.984 21.302c-15.448-7.115-35.484 3.229-47.76 5.698 16.869.734 21.859 3.125 47.76-5.766v.068zm15.13 18.193c-18.182-8.094-40.088 4.25-57.828 7.833 22.417 2.146 35.792-.427 57.828-7.896v.063zm24.557 20.974c-23.937-7.599-48.416 5.041-74.593 7.171 22.114 3.292 31.416 4.776 74.593-7.171zm-46.697 27c26.442 4.656 41.244 1.036 61.286-6.334-10.172-2.588-20.969-.687-31.115 1.474-13.849 2.932-19.984 4.203-34.411 4.229 1.432.151 2.875.391 4.24.631zm66.614 11.395c-35.745-1.093-50.182 8.5-70.797 11.662 33.938 6.01 46.391-2.094 70.797-11.662zm-42.104 34.568c19.531 1.016 38.745-1 57.635-6.047-20.599-4.495-41.255.636-68.145 5.276 3.494.266 6.973.599 10.51.771zm4.917 19.396c21.984 1.422 31.812 1.979 62.927-7.276-22.011-4.13-44.636 3.411-63.297 7.177.094.088.203.12.333.099h.037zm67.609 15.922c-25.01-4.828-40.583 1.807-52.37 4.182 17.698 1.932 25.016 5.703 52.334-4.182h.036zm13.755 23.192c-15.859-4.406-32.781-1.604-48.802.573-1.443.204-2.901.329-4.354.542 13.745 2.037 21.745 6.719 53.156-1.115zm-36.318 25.178c30.855 4.072 47.521-2.683 56.047-4.146-13.932-5.755-38.76 2.578-58.593 3.609.833.25 1.687.432 2.552.537h-.006zm28.417 26.718c15.469 3.339 25.474.453 32.922 1.834-12.411-9.907-29.089-5.849-53.625-9.032a87.894 87.894 0 0 0 20.703 7.198zm-12.536 21.953c8.963 8.422 16.578 12.849 26.864 18.188 10.438 5.437 8.922 5.635 9.464 4.823-4.578-7.469-8.36-13.714-14.875-19.474-12.011-10.63-27.688-16.193-37.182-22.5a101.622 101.622 0 0 0 15.729 18.963zm-19.688 22.954c-3.062-11.297-3.479-33.844-20.63-55.318 2.703 13.359 5.76 37.583 20.63 55.318zm-29.797-9.297c-4.63-32.485-5.869-49.026-15.687-64.276 2.166 24.145 4.052 46.937 15.687 64.276zm-39.396-39.985a154.889 154.889 0 0 1 5.641 17.912c.667-6.584.922-13.183.755-19.797a157.313 157.313 0 0 0-1.724-19.734 157.54 157.54 0 0 0-10.77-38.047c-2.683 30.041-2.49 36.041 6.098 59.666zm-30.38-66.791c-6.974 25.645-15.593 55.39-2.005 80.619 8.026-27.864 3.224-57.25 3.333-85.651-.359 1.573-.906 3.334-1.328 5.032zm-43.026 63.755c18.792-35.636 19.672-45.927 24.594-78.792-15.75 38.078-18.521 41.985-24.594 78.792zm-27.719-16.365c11.136-16.76 18.365-28.63 24.448-47.88 3.37-10.651 7.276-26.838 8.714-31.396-16.125 29.318-28.052 50.005-33.162 79.287v-.011zm9.318-83.838c-6.745 9.859-5.156 7.864-24.693 56.682 17.454-22.328 24.724-45.672 43.516-82.172-6.547 8.328-12.87 16.787-18.823 25.5v-.01zm-45.844 32.963c25.13-19.864 42.839-46.531 59.12-74.218-21.864 21.739-44.5 48.265-59.12 74.229v-.011zm-12.218-20.63c26.01-14.172 40.541-42.734 58.14-66.021-21.599 19.297-43.432 39.62-58.14 66.031v-.01zm25.349-58.125c10.77-9.083 18.62-17.844 27.026-27.766-20.39 12.954-32.287 13.933-57.964 41.787-3.666 3.974-7.135 8-10.604 12.026a182.595 182.595 0 0 0 41.547-26.037l-.005-.01z"/></g></g></g></g></svg>