<svg xmlns="http://www.w3.org/2000/svg" width="250" height="250" version="1.0" viewBox="0 0 187.5 187.5"><path d="M81.848 109.29c-1.493-3.298-2.973-6.626-4.578-9.868a25.548 25.548 0 0 0-1.489-2.629c10.426-6.293 21.317-11.707 31.922-17.688 1.484-.843 4.188-2.09 3.59-4.285-.547-2.047-2.961-1.925-4.508-1.293-5.937 2.426-11.676 5.664-17.355 8.653a369.816 369.816 0 0 0-9.399 5.113c-2.726 1.523-5.633 3-8.172 4.898l-.105-.093c.867-2.055.125-4.57-1.086-6.38-1.484-2.265-3.816-3.734-6.344-4.644-5.847-2.133-12.816-1.5-18.894-.86-5.399.579-10.961 1.934-14.95 5.864a18.586 18.586 0 0 0-4.261 6.824 18.388 18.388 0 0 0-.926 3.938 18.208 18.208 0 0 0-.055 4.047c.25 2.351.899 4.59 1.942 6.715a21.157 21.157 0 0 0-6.535 2.312c-2.06 1.156-4.395 2.758-5.153 5.117-.906 2.801.64 5.254 2.586 7.434-3.812 1.387-7.469 3.95-10.816 6.129-1.817 1.18-3.649 2.37-5.36 3.699-.71.547-1.898 1.516-1.472 2.574.425 1.063 1.5.649 2.277.395 2.18-.735 4.32-1.758 6.461-2.63 4.422-1.792 8.836-3.577 13.328-5.183l.113-.054a8.174 8.174 0 0 1 1.305 2.5c.352 1.195.32 2.48.816 3.64 1.09 2.535 3.676 2 5.72 3.168 2.417 1.387 4.214 3.309 6.913 4.274 2.696.964 5.512 1.207 8.301 1.355 3.379.266 6.75.219 10.121-.14 2.625-.356 5.762-.915 7.625-2.919a16.76 16.76 0 0 0 5.067-.48c2.648-.703 6.433-3.906 4.699-6.95a2.758 2.758 0 0 0-.305-2.292l.137-.07c.879-.454 1.847-.774 2.234-1.633.43.41.938.652 1.524.73.402.047.789 0 1.168-.144.25 2.18.757 4.972 3.023 5.238 2.902.344 4.066-2.942 4.563-5.2a22.055 22.055 0 0 0-.211-9.613 49.065 49.065 0 0 0-3.461-9.57zM80.32 89.11a445.356 445.356 0 0 1 9.418-5.083 607.167 607.167 0 0 1 9.52-4.898 506.849 506.849 0 0 1 4.8-2.36c.801-.39 1.602-.785 2.41-1.16.259-.125.512-.25.774-.363.106-.078.211-.148.324-.21.227-.126.461-.231.692-.345a.835.835 0 0 1 .441-.12h.235a.884.884 0 0 1 .515.402.62.62 0 0 1 .106.328.642.642 0 0 1 0 .344.619.619 0 0 1-.153.296.696.696 0 0 1-.234.22 1.07 1.07 0 0 1-.52.32c-.207.132-.414.246-.62.367a.767.767 0 0 1-.352.207c-.758.437-1.52.863-2.285 1.289a473.898 473.898 0 0 1-4.598 2.52c-3.078 1.66-6.164 3.292-9.258 4.94-5.66 3.016-11.344 6.044-16.785 9.454a22.083 22.083 0 0 0-1.828-2.137c2.539-1.125 4.969-2.66 7.398-4.012zm-50.117.394c2.899-4.156 7.629-6.137 12.45-7.008a61.567 61.567 0 0 1 15.25-.762c3.156.235 6.484.942 9.066 2.868 2.254 1.68 2.945 3.718 3.133 6.203a18.102 18.102 0 0 0-8.028-3.094.397.397 0 0 0-.304.039.375.375 0 0 0-.188.246.366.366 0 0 0 .04.305c.054.097.136.16.241.187a21.807 21.807 0 0 1 7.188 3.75c2.16 1.7 3.941 3.73 5.34 6.094 1.449 2.504 2.566 5.2 3.777 7.824l.98 2.106c-.617-.426-1.242-.805-1.765-1.176-2.723-1.883-3.965-5.004-6.535-7.043-2.082-1.68-4.453-2.61-7.121-2.785-3.27-.172-6.407 1.043-9.414 2.12a.44.44 0 0 0-.083.048c-4.53 1.496-9.308 4.12-11.062 8.508-1 2.515-1.633 5.796-.613 8.39a26.847 26.847 0 0 1 1.562 4.793 23.647 23.647 0 0 0 1.2 4.094 23.69 23.69 0 0 0 4.605 7.234l-.961-.613c-1.547-.977-3.176-1.89-4.637-2.984-1.57-1.176-2.488-2.758-3.64-4.301-.317-.418-.657-.824-1-1.238-1.008-1.934-2.399-3.72-3.051-5.844-.883-2.863-.887-6.063-.637-9.031.477-5.575 2.36-11.18 6.371-15.196.457-.453-.21-1.09-.691-.691-4.625 3.848-7.04 9.453-7.696 15.348a32.727 32.727 0 0 0-.18 5.566c-6.226-6.383-9.097-16.04-3.57-23.957zm-.187 31.055c-.633-.649-1.387-1.172-1.985-1.774.75-.43 1.461-.918 2.13-1.46A19.252 19.252 0 0 0 33.167 115c.289.219.582.438.887.637.09.62.21 1.238.36 1.843.054.2.108.399.17.606a35.881 35.881 0 0 0-3.323 1.633c-.434.242-.84.523-1.219.84zm-23.032 11.25c-.828.363-1.656.726-2.48 1.09-.734.41-1.488.769-2.266 1.09.895-.887 3.27-2.266 3.696-2.544 1.449-.98 2.902-1.925 4.355-2.84 2.828-1.761 5.992-3.23 8.672-5.199.906.942 1.824 1.824 2.582 2.668a354.123 354.123 0 0 0-9.98 3.809 192.86 192.86 0 0 0-4.579 1.926zm46.055 8.59c-3.25.136-6.492.035-9.73-.294-3.414-.332-6.563-1.199-9.309-3.32a17.334 17.334 0 0 0-3.21-2.203c-1.157-.547-3.177-.402-4.013-1.445-.761-.953-.597-2.657-.925-3.809a9.998 9.998 0 0 0-1.551-3.058c-1.45-1.993-3.422-3.52-5.051-5.348-.953-1.086-1.988-2.395-2.227-3.852-.332-2.039 1.22-3.617 2.723-4.726a20.11 20.11 0 0 1 8.121-3.446 20.504 20.504 0 0 0 4.207 5.157 30.744 30.744 0 0 0-2.926 1.902c-.695.395-1.367.828-2.011 1.3a3.195 3.195 0 0 1-.059-1.304c.067-.445-.547-.805-.797-.332-.937 1.77-.363 3.434 1.09 4.719 1.168 1.035 2.004 1.754 2.512 3.316.312.934.344 1.88.976 2.66.266.32.72.09.844-.222.488-1.258-.082-3.059-.742-4.301.32-.246.629-.543.937-.734 1.024-.649 2.07-1.23 3.082-1.88.88 2.516 2.344 5.266 4.22 6.821a.833.833 0 0 0 .417.188c1.156 1.597 2.137 3.109 3.781 4.355 1.891 1.402 3.954 2.605 5.938 3.875a19.593 19.593 0 0 0 6.023 2.824c1.797.442 3.496 1.262 5.293 1.676-2.3 1.14-5.297 1.371-7.613 1.48zm15.824-7.669a16.768 16.768 0 0 1-3.758-.582 27.792 27.792 0 0 1-5.007-1.632c.96-.121 1.922-.121 2.882 0 1.758.379 3.403-.137 4.325-1.477a4.562 4.562 0 0 0 1.793 1.574c.82.36 1.703.035 2.527-.398.41 1.601-1.488 2.504-2.762 2.52zm7.938-5.906a4.653 4.653 0 0 1-1.43-.582 2.043 2.043 0 0 1 0-.219 7.544 7.544 0 0 1 .367-1.632c.125-.395.192-.801.196-1.215a.75.75 0 0 0 .125-.324.765.765 0 0 0-.2-.653.77.77 0 0 0-.289-.199l-.343-.145a.844.844 0 0 0-.383-.015.86.86 0 0 0-.344.156.8.8 0 0 0-.242.293.813.813 0 0 0-.09.371c.098.996-.461 1.867-.578 2.852-.133 1.207.246 1.504-.942 2.133-.902.48-1.964 1.34-2.96 1.144a3.674 3.674 0 0 1-1.754-1.164c0-.063.03-.121.043-.18.503-2.722-1.485-5.34-3.22-7.242a21.004 21.004 0 0 0-3.073-2.723c-1.352-.984-3.204-1.55-4.051-3.066-.13-.23-.45-.066-.406.168.343 1.707 1.918 2.629 3.171 3.656a20.292 20.292 0 0 1 4.684 5.297c.719 1.215 1.473 2.918.691 4.285-.835 1.473-1.98.774-3.265.692-.961-.067-1.914.265-2.871.27a11.078 11.078 0 0 1-3.84-.833 13.39 13.39 0 0 1-2.55-2.824c-1.392-2.09-1.446-4.355-2.325-6.625-.883-2.27-1.98-4.094-1.637-6.613.371-2.68 2.098-4.48 4.586-5.383.973-.356 1.973-.594 2.926-.992.953-.399 1.914-1.012 2.898-1.457.32-.149.653-.27.992-.368 0 .211.075.391.22.547a25.934 25.934 0 0 0 7.671 5.575c1.406.71 3.008 1.332 3.934 2.683.925 1.348 1.215 2.988 1.996 4.352.703 1.265 1.676 2.375 2.265 3.699.829 1.855.747 3.977.946 5.988-.305.156-.52.352-.918.297zm6.64 1.7a6.696 6.696 0 0 1-.796 2.175c-.141.196-.801.985-1.051.953-.68-.093-1.16-1.156-1.364-1.703-1.09-2.98-.386-6.316-1.359-9.316-.793-2.41-2.547-4.352-3.48-6.738-1.059-2.676-2.508-4.137-5.094-5.395a46.259 46.259 0 0 1-8.004-5.164 23.515 23.515 0 0 1 5.082.047c.547.05.645-.817.125-.926-2.277-.477-4.523-1.027-6.848-.543a12.63 12.63 0 0 0-3.03 1.203 29.345 29.345 0 0 1-3.962 1.496c-4.254 1.422-6.836 5.09-6.195 9.657.351 2.511 1.765 4.656 2.289 7.12a13.527 13.527 0 0 0 2.8 5.891c3.122 3.86 7.91 5.809 12.65 6.82 2.089.442 4.694 1.008 6.585-.335a4.133 4.133 0 0 1-1.957 2.48c-1.559.95-3.45 1.09-5.23 1.09a14.89 14.89 0 0 1-5.954-1.23 17.237 17.237 0 0 0-2.003-.626c-1.36-1.042-2.864-1.914-4.118-3.105a23.009 23.009 0 0 1-4.359-5.55 24.933 24.933 0 0 1-2.41-6.813 16.36 16.36 0 0 0-1.09-3.348 7.703 7.703 0 0 1-.7-4.898c.442-2.82 1.485-5.274 3.743-7.075 2.262-1.804 5.02-3.023 7.691-3.953 4.172-1.441 9.54-2.281 13.559.028.531.363 1.031.77 1.492 1.218 1.824 1.758 2.883 4.137 4.86 5.754.859.703 1.82 1.246 2.722 1.88 1.305.898 2.07 1.98 2.996 3.265.067.09.149.156.25.199.278.676.547 1.356.793 2.043a27.457 27.457 0 0 1 1.832 8.863 16.905 16.905 0 0 1-.465 4.54zm-34.769-67.11c-.828 1.465-1.723 2.977-3.102 3.988-1.242.91-2.691 1.157-3.992 1.868a.46.46 0 0 0-.23.48c.027.21.14.348.343.41 1.707.57 3.813-.453 5.145-1.488 1.633-1.258 2.36-2.867 3.012-4.762.238-.691-.817-1.12-1.176-.496zm0 0"/><path d="M186.473 79.367c-1.723-.789-3.422-.605-5.25-.305-2.344.38-4.641.981-6.93 1.59a419.719 419.719 0 0 0-14.598 4.157 419.512 419.512 0 0 0-11.71 3.718 18.061 18.061 0 0 0-.61-1.09 31.934 31.934 0 0 0-7.332-7.851c-2.816-2.238-6.031-3.969-9.633-4.461-3.898-.543-8.144-.168-12.015.469-6.27 1.039-12.66 4.094-15.711 9.875-6.641 2.226-14.075 8.386-13.07 16.015a38.362 38.362 0 0 0 1.331 5.329 33.815 33.815 0 0 0-7.343 2.886.979.979 0 0 0 0 1.68c2.097 1.14 4.66.48 6.91.223l1.14-.133a13.898 13.898 0 0 1-.375 3.004c-.488 2.113-.925 4.113-.625 6.297a17.64 17.64 0 0 0 1.563 5.171c-1.188 7.899 2.129 16.778 7.719 22.024a24.977 24.977 0 0 0 7.488 4.863 25.037 25.037 0 0 0 8.71 1.942c.13.003.25-.02.368-.07a5.28 5.28 0 0 0 .055 1.116c.422 2.391 3.027 3.43 5.183 2.59a5.288 5.288 0 0 0 2.614-2.176c1.886.684 3.925-.19 5.449-1.46 1.129-.946 2.785-2.989 2.722-4.688a6.315 6.315 0 0 0 2.415-1.277c3.05-2.64 3.78-7.133 4.847-10.801 1.477-5.102 3.094-10.219 3.574-15.531.098-1.149.141-2.297.118-3.45a33.907 33.907 0 0 0 4.437-9.367c1.191-4.05.719-8.281 1.367-12.414.2-1.234.25-2.48.156-3.726a209.674 209.674 0 0 1 13.313-4.024c4.828-1.285 9.707-2.347 14.484-3.812a59.016 59.016 0 0 0 6.313-2.176c1.527-.652 2.77-1.531 3.344-3.137a.844.844 0 0 0-.04-.57.865.865 0 0 0-.378-.43zm-94.864 18.7c.442-1.84 1.598-3.52 2.805-4.946a19.363 19.363 0 0 1 7.297-5.316 18.012 18.012 0 0 0-.7 4.086 38.768 38.768 0 0 1-1.027 6.992c-.507 1.976-1.062 3.969-1.379 5.988-1.96.36-3.91.902-5.84 1.453-.21-.812-.453-1.633-.68-2.469-.522-1.898-.944-3.859-.476-5.789zm-4.445 12.066c1.7-.711 3.43-1.324 5.2-1.832a57.81 57.81 0 0 0 6.05-1.89c-.062.71-.074 1.421-.039 2.132-2.387.363-4.773.7-7.164 1.004-1.137.14-2.64.516-4.047.586zm5.246 10c-.152-2.102.45-4.012.883-6.031.207-.942.3-1.899.277-2.864a366.5 366.5 0 0 0 5.067-.664c.113.516.261 1.024.449 1.52a.997.997 0 0 0 .113.222c-.949 1.993-2.261 3.625-3.652 5.504a17.342 17.342 0 0 0-2.598 5.145 15.892 15.892 0 0 1-.539-2.832zm16.649 4.851c.093 2.317.418 4.688 0 6.996-.399 2.122-1.586 3.918-1.403 6.149.227 2.789 2.563 6.434 5.656 6.406a.674.674 0 0 1-.039.094c-.543 1.34-1 2.832-.418 4.234.434 1.035 1.34 1.668 2.207 2.317.262.187.508.398.739.629-3.188-1.606-6.102-3.954-8.742-6.254-3.27-2.86-6.149-6.5-6.465-10.993-.422-5.66 3.785-9.105 8.465-9.578zm15.96 30.114c.668-1.395 1.086-2.977 1.606-4.356.234-.62-.672-.902-1.008-.426-1.34 1.914-2.273 5.903-4.902 6.454-3.27.69-1.797-3.774-2.844-5.5-1.234-2.047-4.035-2.06-3.27-5.075.278-1.148.864-2.175 1.09-3.367.235-1.297.254-2.598.067-3.902a.464.464 0 0 0-.156-.305.47.47 0 0 0-.633 0 .46.46 0 0 0-.153.305 12.96 12.96 0 0 1-.941 4.164c-1.305-.856-2.688-1.3-3.57-2.723-1.203-1.945-.79-3.87-.102-5.883 1.09-3.152.754-6.382-.133-9.539 1.473-.027 2.883.25 4.235.828a10.169 10.169 0 0 1 3.52 2.493c1.277 1.414 2.327 2.652 4.01 3.632 1.974 1.149 3.685 2.305 4.997 4.223a12.879 12.879 0 0 1 2.02 4.715c.48 2.297-.11 4.105-.262 6.355-.133 1.989.808 2.887 2.066 3.067-.344 2.457-3.144 4.98-5.636 4.84zm7.836-7.395c-.34.215-.699.367-1.09.465-.859-.535-1.12-1.184-.788-1.953.441-3.625.218-6.895-1.606-10.16a14.055 14.055 0 0 0-3.11-3.852c-1.683-1.437-3.886-2.144-5.448-3.715-1.301-1.304-2.278-2.722-3.864-3.746a12.586 12.586 0 0 0-5.117-1.847c-7.719-1.09-14.41 5.039-13.25 12.89.672 4.57 3.547 8.305 6.945 11.278a43.836 43.836 0 0 0 6.711 5.058c-8.355-2.047-15.25-8.437-17.328-17.02a26.574 26.574 0 0 1-.597-3.59c.14-.425.273-.855.437-1.28a18.737 18.737 0 0 1 1.906-3.594 16.618 16.618 0 0 1 5.348-5.274c4.863-2.957 10.683-2.984 15.828-.758a59.808 59.808 0 0 1 7.027 3.813c2.485 1.492 4.954 2.812 6.313 5.496a40.848 40.848 0 0 1 3.016 7.992c.761 2.906.601 5.446.265 8.367a9.05 9.05 0 0 1-.316.375c-.371.418-.801.77-1.282 1.055zm14.508-50.668a32.31 32.31 0 0 0-.547 5.617 22.282 22.282 0 0 1-.64 6.207 36.532 36.532 0 0 1-2.871 6.875 78.584 78.584 0 0 0-1.633-9.425c-.18-.825-1.598-.66-1.496.199.617 5.035 1.375 10.219 1.035 15.3-.348 5.235-1.969 10.297-3.41 15.31-.395 1.382-.746 2.804-1.16 4.19-.172-3.085-1.344-6.304-2.348-8.843-.832-2.11-1.633-4.356-3.203-5.988-1.567-1.633-3.813-2.82-5.805-4.008-4.125-2.465-8.496-4.95-13.39-5.32a18.359 18.359 0 0 0-6.657.742 18.368 18.368 0 0 0-5.953 3.07 16.786 16.786 0 0 0-4.972 6.195 16.18 16.18 0 0 1 2.386-7.375c1.344-2.094 3.16-3.855 4.172-6.152 1.012-2.297 1.285-4.938 2.516-7.195 2.984-5.485 9.14-8.086 15.031-9.032.672-.109.543-1.273-.164-1.203-5.574.594-11.067 2.469-14.781 6.88a17.355 17.355 0 0 0-3.149 5.987c-.297-2.832.434-5.671 1.18-8.464a43.967 43.967 0 0 0 1.09-4.813c.25-1.687.215-3.39.418-5.082.828-6.937 7.113-11.254 13.449-12.793a44.3 44.3 0 0 1 10.977-1.05 17.25 17.25 0 0 1 5.28.84 17.25 17.25 0 0 1 4.778 2.398 32.39 32.39 0 0 1 7.191 6.761 14.83 14.83 0 0 1 1.493 2.297c-4.614 1.582-9.172 3.309-13.645 5.246a4.736 4.736 0 0 0-3.27-2.379c-.456-.097-.82.594-.335.809 2.476 1.086 2.324 3.062 2.87 5.332.212.906.762 1.57 1.09 2.422.337.953.09 1.75.696 2.582.14.215.336.305.59.27a.563.563 0 0 0 .5-.41 4.548 4.548 0 0 0-.031-3.266 5.341 5.341 0 0 0-.258-.493 203.713 203.713 0 0 1 13.172-5.093c.03.957-.036 1.91-.196 2.855zm31.926-13.887c-2.113.688-4.25 1.282-6.394 1.84-4.598 1.211-9.23 2.266-13.805 3.547a207.132 207.132 0 0 0-25.57 9.078c-.145-.511-.215-1.05-.336-1.566a5.345 5.345 0 0 0-.114-.41c8.535-2.723 16.973-5.782 25.532-8.469a444.558 444.558 0 0 1 13.25-3.941c2.12-.598 4.234-1.204 6.375-1.727 1.882-.46 4.476-1.316 6.535-.863-1.18 1.472-3.895 2-5.473 2.511zm-120.797-55.5c1.227-.125 2.488-.73 3.664-1.09.117-.058.164-.152.133-.28-.031-.13-.113-.192-.246-.192-1.172.316-2.598.543-3.629 1.223-.156.082-.117.355.078.34zm-2.168 1.992c2.18-.257 4.465-1.245 6.438-2.18.258-.116.078-.542-.196-.456-2.074.672-4.394 1.242-6.363 2.18-.207.109-.113.484.121.457zm-3.383 2.903c3.07-.828 6.059-2.254 9.07-3.27.325-.105.192-.625-.144-.515-3.02.965-6.324 1.828-9.12 3.332-.09.082-.114.183-.063.293a.24.24 0 0 0 .257.16zm-2.246 2.997c1.489-.458 2.86-1.294 4.282-1.93a79.18 79.18 0 0 1 5.418-2.18c.394-.145.226-.79-.18-.649-3.156 1.09-7.024 2.246-9.727 4.27-.222.168-.105.586.207.488zm-.995 2.87c1.667-.77 3.187-1.906 4.82-2.754a44.657 44.657 0 0 1 5.574-2.433c.375-.137.218-.735-.164-.602-3.535 1.227-7.785 2.785-10.54 5.387-.222.21.06.515.31.402zm9.62-3.07a66.71 66.71 0 0 0-9.363 5.191c-.355.246-.039.809.336.582 3.078-1.828 6.113-3.672 9.328-5.261.336-.153.031-.66-.3-.512zm-.43 3.117c.297-.133.075-.668-.23-.543a36.959 36.959 0 0 0-9.324 5.352c-.313.261.098.793.441.543a60.002 60.002 0 0 1 9.114-5.352zm-1.546 2.324a45.802 45.802 0 0 0-7.485 4.903c-.332.277.114.863.47.601a79.687 79.687 0 0 1 7.355-4.957c.12-.125.132-.262.043-.406-.094-.145-.22-.192-.383-.14zm-1.473 2.856c-1.726 1.234-3.684 2.386-5.219 3.851-.144.157-.152.317-.023.489.129.168.289.203.476.101 1.81-1.09 3.426-2.586 5.122-3.84.37-.261.015-.863-.356-.601zm-2.402 5.09 1.504-1.633c.332-.356-.196-.89-.543-.547-.535.558-1.067 1.121-1.598 1.687-.523.434-.941.95-1.246 1.559-.082.234.187.363.375.289a5.11 5.11 0 0 0 1.508-1.355zm.043 2.121c.316-.32.629-.649.937-.97.313-.32-.195-.886-.543-.542l-.926.977a2.315 2.315 0 0 0-.687.992.2.2 0 0 0 .059.203.206.206 0 0 0 .203.054 2.25 2.25 0 0 0 .957-.714zm7.343-5.058c1.32-.349 2.606-1.13 3.813-1.708.305-.14.039-.594-.262-.445-1.215.543-2.613 1.054-3.707 1.832-.11.054-.136.133-.082.242.051.105.133.133.238.078zm-1.121 2.57c1.891-.544 3.746-1.778 5.508-2.66.348-.177.043-.7-.305-.548-1.75.852-3.816 1.575-5.394 2.723-.223.188-.098.566.191.484zm-1.754 3.218c2.032-1.09 3.961-2.367 6.024-3.414.258-.129.031-.512-.227-.387a66.892 66.892 0 0 0-6.156 3.18.354.354 0 0 0-.113.477.347.347 0 0 0 .207.164c.094.027.18.023.265-.02zm6.868-2.39c-2.621 1.425-5.364 2.792-7.832 4.437a.399.399 0 0 0-.184.223.41.41 0 0 0 .5.523c.992-.223 2.18-1.297 3.055-1.824 1.59-.95 3.175-1.895 4.777-2.824a.305.305 0 0 0 .133-.192.288.288 0 0 0-.035-.226.287.287 0 0 0-.184-.14.298.298 0 0 0-.23.023zm-.625 2.355a49.526 49.526 0 0 0-7.625 4.16c-.489.34-.047 1.129.472.805a75.287 75.287 0 0 1 7.551-4.293c.461-.215.059-.88-.398-.672zm-1.352 2.805a38.31 38.31 0 0 0-6.613 3.992c-.387.305.12.96.547.683a75.838 75.838 0 0 1 6.441-4.05c.399-.223.04-.832-.375-.625zm-1.504 2.679a16.693 16.693 0 0 0-4.144 2.793c-.32.32.101.914.5.645 1.363-.914 2.605-1.942 4.047-2.719a.403.403 0 0 0 .195-.25.398.398 0 0 0-.035-.312.417.417 0 0 0-.25-.196.4.4 0 0 0-.313.04zm-.746 2.45c-.46.39-.937.765-1.434 1.12-.449.286-.882.598-1.3.938-.239.215 0 .711.34.574a12.137 12.137 0 0 0 2.933-2.093c.371-.317-.168-.852-.539-.54zm.039 1.535a10.99 10.99 0 0 1-1.2 1.015c-.335.258-.839.508-.968.926a.307.307 0 0 0 .055.277.3.3 0 0 0 .254.125c.453 0 .879-.46 1.195-.753.316-.297.75-.758 1.09-1.149.102-.14.094-.273-.027-.402-.121-.125-.254-.14-.399-.04zm-.34 2.121c-.199.219-.402.43-.593.66-.188.227-.38.43-.313.719a.21.21 0 0 0 .211.164c.262.031.488-.219.66-.395.168-.172.38-.406.543-.613.356-.355-.18-.895-.508-.535zm.055 1.699-.184.176a.453.453 0 0 0-.148.277.208.208 0 0 0 .039.184.202.202 0 0 0 .168.082h.121a.447.447 0 0 0 .223-.121l.207-.168a.298.298 0 0 0 0-.426.286.286 0 0 0-.211-.086.295.295 0 0 0-.215.086zm1.582-20.872a1.17 1.17 0 0 0 .8-.21l.911-.453c.363-.18.047-.723-.316-.543l-.864.426c-.242.117-.543.215-.656.484a.195.195 0 0 0-.012.18.2.2 0 0 0 .137.117zm20.824 4.493a9.672 9.672 0 0 0 3.215-.691c.332-.11.188-.633-.144-.543-1.067.25-2.114.566-3.141.949-.137.082-.063.281.07.285zm3.141-.012-2.996.543a9.962 9.962 0 0 0-2.578.633c-.203.098-.082.375.105.39a9.704 9.704 0 0 0 2.656-.382l2.985-.594c.39-.082.222-.66-.172-.59zm-.457 1.434c-2.063.543-4.625.86-6.492 1.922-.094.058-.13.14-.098.25.027.105.102.16.21.16 2.15-.086 4.49-1.164 6.54-1.793a.292.292 0 0 0 .168-.137.273.273 0 0 0-.113-.379.259.259 0 0 0-.215-.023zm-.75 1.648c-2.844.766-5.856 1.348-8.606 2.407-.183.07-.25.203-.195.39.05.192.176.27.367.235 2.903-.543 5.781-1.575 8.614-2.39a.299.299 0 0 0 .199-.157.306.306 0 0 0 .031-.254.31.31 0 0 0-.156-.2.322.322 0 0 0-.254-.03zm-1.641 1.883c-3.078.77-6.793 1.578-9.43 3.418-.128.082-.164.196-.105.336.059.14.164.195.313.16 1.597-.398 3.105-1.203 4.652-1.758 1.547-.554 3.148-1.09 4.758-1.492a.334.334 0 0 0 .207-.164.357.357 0 0 0 .031-.261.347.347 0 0 0-.426-.239zm-3.656 2.84c-2.543.895-5.32 1.734-7.656 3.094-.153.105-.192.238-.121.41.07.168.195.234.375.2 2.578-.845 5.035-2.118 7.578-3.075.386-.145.222-.762-.176-.629zm-4.496 3.214c-.938.477-1.871.97-2.797 1.474-.879.379-1.684.875-2.422 1.48-.105.11-.121.227-.047.352.074.129.184.175.328.14a11.71 11.71 0 0 0 2.512-1.336c.914-.52 1.836-1.027 2.766-1.523.398-.211.047-.79-.34-.586zm-3.481 3.099c-.472.257-.925.543-1.363.859-.312.223-.84.488-.91.89a.157.157 0 0 0 .031.149c.031.047.078.07.133.07.418 0 .773-.445 1.09-.675.414-.297.844-.57 1.289-.82a.266.266 0 0 0 .129-.169.259.259 0 0 0-.028-.207.277.277 0 0 0-.164-.125.255.255 0 0 0-.207.028zm15.735 3.976c.617-.043.734-.297 1.199-.64.75-.547 1.535-.133 2.344-.403a1.934 1.934 0 0 0 1.05-.969c.543-.886.762-1.726 1.633-2.386.278-.207 0-.676-.277-.477a5.168 5.168 0 0 0-1.406 1.23c-.442.587-.68 1.633-1.559 1.747-.586.093-1.09-.258-1.691 0-.606.254-.828.91-1.41 1.12-.38.153-.352.805.117.778zM37.77 65.512c2.523.91 6.699 0 8.507-1.992a.29.29 0 0 0 0-.418.271.271 0 0 0-.207-.086.286.286 0 0 0-.21.086c-2.255 1.894-5.41 1.507-8.09 1.96-.239.043-.196.387 0 .45zm0 0"/><path d="M38.766 64.043c1.129.176 2.449-.195 3.53-.5a.301.301 0 0 0 .192-.145.3.3 0 0 0 .028-.238 8.24 8.24 0 0 0 2.242-.597c2.664-1.09 5.254-2.403 7.844-3.649.082.145.164.29.242.438 1.394 2.687 2.476 5.484 4.168 8.015a33.531 33.531 0 0 0 5.386 6.29 28.3 28.3 0 0 0 7.954 5.296c3.066 1.285 6.3 1.277 9.507.543 3.043-.73 5.844-2 8.395-3.808a25.66 25.66 0 0 0 2.07-1.774c3.11-1.336 6.09-3.09 7.871-5.855a11.04 11.04 0 0 0 .95-1.82c3.484-4.77 3.851-10.43 1.601-15.844-1.148-2.766-3.004-4.938-4.555-7.45a12.909 12.909 0 0 1-1.164-2.558c11.399-5.39 23.22-9.723 34.797-14.7 1.563-.667 4.438-1.664 3.953-3.93-.457-2.144-2.925-2.124-4.566-1.632-6.02 1.922-11.938 4.293-17.813 6.617a503.845 503.845 0 0 0-9.804 4.035c-2.914 1.243-6.051 2.391-8.809 4.016-1.469-2.234-3.5-3.605-5.82-4.855a13.74 13.74 0 0 1-3.617-2.618c-1.09-1.144-2.012-2.433-3.149-3.52a14.938 14.938 0 0 0-3.246-2.316 14.761 14.761 0 0 0-3.746-1.367 14.792 14.792 0 0 0-3.977-.328 15.03 15.03 0 0 0-3.918.742c-2.816.89-5.398 2.38-7.91 3.91-2.511 1.532-5.035 3.032-7.12 5.079a17.314 17.314 0 0 0-4.145 6.684 17.062 17.062 0 0 0-.828 3.87 17.188 17.188 0 0 0 .07 3.957c.484 3.598 2.219 6.688 4.086 9.711a31.324 31.324 0 0 0-5.86 3.988c-1.015.868-3.605 2.754-3.105 4.442.137.492.453.8.95.93-.34.082-.677.152-1.02.207a15.2 15.2 0 0 0-1.684.246c-.219.043-.25.445.02.488zm35.566 13.836c-2.828-.309-5.375-1.82-7.652-3.438a30.913 30.913 0 0 1-2.086-1.632c-.547-1.418-1.196-2.723-1.278-4.356-.05-2.2.348-4.308 1.196-6.336 1.633-4.242 3.937-8.445 6.16-12.402 1.062-1.895 2.324-3.61 4.187-4.778 1.864-1.171 3.918-1.785 5.899-2.613 2.34-.98 4.976-2.418 6.199-4.715.711.653 1.059 1.403.656 2.23-.601 1.212-2.21 2.071-3.297 2.724-1.28.796-2.558 1.59-3.812 2.449a48.617 48.617 0 0 0-6.117 4.949c-3.813 3.652-6.887 8.137-8.383 13.215-.7 2.36-1.176 4.984-.133 7.316.883 1.961 2.629 3.403 4.5 4.356a17.8 17.8 0 0 0 6.07 1.906c2.141.273 4.258.16 6.356-.332-.082.031-.164.07-.25.098-2.598.968-5.426 1.671-8.215 1.359zm-4.664-6.067.055-.093c3.515-8.38 12.566-14.246 21.652-13.301-2.984.687-5.992 2.375-8.32 3.539-4.953 2.477-9.61 5.742-11.114 11.297a10.966 10.966 0 0 1-2.273-1.442zm27.238-5.835c-1.16 2.37-3.27 3.863-5.59 5-4.625 2.273-10.16 4.738-15.398 3.601a21.161 21.161 0 0 1-2.29-.64c1.587-5.012 5.196-7.77 9.806-10.172 2.18-1.137 4.398-2.52 6.734-3.317 1.605-.543 3.883-1.14 5.785-.89a23.243 23.243 0 0 1-1.773 4.086c-.727 1.199-1.852 1.363-2.895 2.144-.62.465-.976 1.223-1.637 1.606a4.76 4.76 0 0 1-2.105.421c-1.781.11-3.508-.359-5.281-.332-.25.024-.407.157-.473.403a.504.504 0 0 0 .211.582c1.754.898 4.121 1.09 6.074 1.09 1.864-.036 2.688-.73 3.973-1.934.668-.625 1.574-.828 2.297-1.379a4.957 4.957 0 0 0 1.351-1.707 14.063 14.063 0 0 0 1.285-4.355c.524.472.801 1.062.84 1.765a8.126 8.126 0 0 1-.914 4.031zm5.067-33.536a513.792 513.792 0 0 1 9.285-3.78 401.009 401.009 0 0 1 9.992-3.813c1.668-.618 3.344-1.23 5.027-1.832l2.52-.895.898-.308.23-.137c.157-.09.317-.168.485-.227.164-.066.332-.094.508-.082a.84.84 0 0 1 .613.254.832.832 0 0 1 .258.617.955.955 0 0 1-.258.614 3.565 3.565 0 0 1-.625.39c-.34.172-.691.328-1.047.477-.812.363-1.629.71-2.445 1.05a355.32 355.32 0 0 1-5.332 2.208c-3.187 1.296-6.39 2.57-9.582 3.855-6.066 2.445-12.156 4.898-18.031 7.79a21.724 21.724 0 0 0-.989-2.63c2.907-.953 5.723-2.375 8.5-3.543zM49.215 34.13c2.637-4.629 7.98-7.516 12.555-9.945 4.902-2.59 10.449-3.625 15.335-.407 2.207 1.453 3.551 3.703 5.446 5.48 1.898 1.782 4.219 2.477 6.187 3.97 2.567 1.933 3.407 4.578 4.36 7.492.922 2.773 2.757 4.789 4.277 7.226 2.516 4.04 3.852 9.38 2.57 14.055 0-.305-.027-.61-.062-.906-.281-2.29-2.324-3.348-4.328-4.012C84.66 53.484 72.773 60.09 68.199 70.07c-.914-1.707-.758-3.68-.215-5.726 1.348-5.047 4.414-9.453 8.172-13.024a47.66 47.66 0 0 1 6.2-4.925c1.94-1.305 4.144-2.364 5.855-3.98 1.258-1.185 2.406-2.962 1.531-4.692-.8-1.59-2.847-2.766-4.402-3.473-10.153-4.625-19.656 2.754-26.531 9.527-.348.344.164.836.543.543 4.265-3.636 9.03-7.441 14.57-8.851a16.847 16.847 0 0 1 7.73-.254c1.47.34 2.86.875 4.18 1.597-2.355 3.2-6.09 4.114-9.719 5.731-4.168 1.855-6.199 5.086-8.215 9.012-2.144 4.175-4.859 8.449-5.859 13.066a16.456 16.456 0 0 0-.242 5.48 31.819 31.819 0 0 1-5.067-7.41c-1.187-2.406-2.257-4.808-3.675-7.074-1.301-2.09-2.723-4.129-3.813-6.324-2.484-4.836-2.73-10.367-.015-15.156zm-6.067 26.44c1.758-2.367 4.653-3.937 7.02-5.742.547.836 1.05 1.68 1.555 2.531l-4.551 2.13c-.82.39-1.633.796-2.473 1.167-.633.27-2.527 1.242-1.543-.082zm0 0"/><path d="M94.758 48.645c1.265 2.351 2 4.695 2.887 7.18.05.195.175.28.378.253.2-.027.297-.14.297-.344.106-2.27-1.187-4.648-2.222-6.597-1.25-2.344-2.723-4.57-3.813-7-.101-.223-.472-.063-.398.172a36.263 36.263 0 0 0 2.87 6.336zM69.5 24.113c3.34.547 6.27 1.059 8.848 3.496 1.007.957 1.84 2.098 2.906 3 1.07.903 2.316 1.27 3.527 1.914a.24.24 0 0 0 .2.028.253.253 0 0 0 .164-.125.262.262 0 0 0-.098-.364 16.017 16.017 0 0 1-4.266-3.183 20.003 20.003 0 0 0-3.148-3.07c-2.223-1.586-5.39-2.774-8.133-2.137-.113.031-.168.105-.168.223 0 .117.055.187.168.218zM37.941 85.152a6.338 6.338 0 0 0 1.77-.277l1.96-.418c.31-.066.18-.547-.132-.469l-1.965.403a6.318 6.318 0 0 0-1.707.441c-.183.074-.09.309.074.32zm-2.144 1.903c1.16-.14 2.293-.38 3.406-.72a56.025 56.025 0 0 1 3.863-.718c.332-.05.254-.629-.078-.582-2.324.281-5.238.438-7.304 1.606-.094.058-.13.14-.098.25.031.105.102.16.21.164zm-2.34 2.468c3.078-.703 5.953-1.925 9.102-2.433.336-.055.191-.543-.141-.512-3.031.442-6.473.914-9.176 2.442-.133.082-.172.195-.11.343.063.145.169.2.325.16zm-1.324 2.645c3.09-1.156 6.035-2.316 9.262-2.98.292-.063.16-.485-.122-.442-3.207.512-6.535 1.297-9.433 2.805-.3.172-.07.754.293.617zm-.343 2.211c2.218-.871 4.194-2.035 6.538-2.66a.344.344 0 0 0 .192-.172.338.338 0 0 0 .027-.254.34.34 0 0 0-.152-.207.342.342 0 0 0-.254-.047c-2.235.57-4.825 1.36-6.614 2.871-.09.102-.101.211-.035.328.067.121.164.168.297.14zm-1.45 2.648c2.832-.972 5.52-2.683 8.281-3.879.238-.101.07-.511-.176-.418-2.722.993-5.992 2.02-8.324 3.778-.215.176-.113.625.219.52zm7.48-2.761c-3.12 1.27-6.297 2.695-9.039 4.675-.375.274-.047.875.371.637 2.95-1.664 5.785-3.418 8.887-4.8.29-.102.082-.65-.219-.512zm-2.605 2.906c-2.008 1.144-4.266 2.348-5.922 3.984-.113.137-.117.274-.008.414.11.14.242.172.402.094 1.989-1.27 3.758-2.816 5.813-4.008.129-.101.152-.222.07-.367-.082-.14-.203-.18-.355-.117zm-.27 2.59c.32-.242 0-.793-.328-.543-.933.648-1.875 1.285-2.804 1.945-.63.441-1.383.89-1.637 1.633-.09.238.207.402.406.308.727-.359 1.36-1.09 2.02-1.574zm-.324 2.128c.356-.308-.156-.796-.512-.511l-1.836 1.543a7.337 7.337 0 0 0-1.593 1.539c-.192.316.18.625.476.48a8.224 8.224 0 0 0 1.696-1.445c.582-.535 1.175-1.07 1.77-1.605zm-2.887 4.587a.69.69 0 0 0 .387-.332 4.81 4.81 0 0 1 .645-.707c.453-.454.914-.899 1.37-1.348.301-.293-.152-.746-.468-.461-.543.488-1.09.98-1.633 1.465-.32.281-.965.781-.597 1.258a.26.26 0 0 0 .296.125zm1.098.957 1.086-1.028c.379-.355-.188-.914-.543-.547l-1.09 1.032c-.3.28-.773.57-.777 1.015.004.18.097.274.277.278.414 0 .758-.477 1.047-.75zm.035 1.644c.156-.172.293-.351.414-.547.059-.164.012-.293-.136-.383-.153-.09-.286-.074-.407.051-.101.176-.222.34-.355.492-.156.176-.332.301-.36.543a.26.26 0 0 0 .082.188.25.25 0 0 0 .184.074c.234-.016.426-.238.578-.418zm.051.235c-.16.242-.465.574-.398.886.042.145.14.2.289.164.168-.039.273-.203.363-.34.094-.136.18-.27.27-.406.206-.328-.313-.625-.524-.305zm12.984-17.29c.485.079.953.028 1.407-.152.582-.121 1.164-.223 1.75-.328.359-.059.207-.598-.149-.543-.59.094-1.176.191-1.758.3-.484.013-.925.16-1.324.434a.153.153 0 0 0-.043.164.16.16 0 0 0 .117.125zm-1.414 1.692a14.771 14.771 0 0 0 2.797-.461 7.52 7.52 0 0 0 2.512-.742.277.277 0 0 0 .137-.18.275.275 0 0 0-.032-.227.29.29 0 0 0-.18-.136.296.296 0 0 0-.222.031c-1.527.813-3.48.547-5.082 1.191-.262.106-.254.532.07.524zm4.712-.277c-2.255.492-4.864.894-6.907 2.007-.27.145-.07.493.191.453 2.301-.37 4.586-1.37 6.856-1.937.152-.059.207-.168.164-.324-.043-.16-.145-.223-.305-.2zm-7.454 3.746c2.234-.028 4.703-1.09 6.863-1.633.172-.059.23-.172.184-.344-.05-.172-.16-.238-.336-.2-2.18.544-4.832.735-6.82 1.74-.145.038-.2.128-.16.273.035.144.125.199.27.164zm6.996-.875c-2.867.664-5.992 1.222-8.668 2.437-.336.152-.086.633.242.543 2.887-.594 5.707-1.734 8.567-2.48.113-.075.152-.176.113-.305-.035-.129-.121-.195-.254-.195zm-.91 1.543c-2.789.656-5.719 1.41-8.258 2.773-.36.195-.113.809.281.672 2.727-.945 5.344-2.067 8.172-2.781a.337.337 0 0 0 .207-.164.332.332 0 0 0 .028-.266.323.323 0 0 0-.168-.203.324.324 0 0 0-.262-.031zm-1.398 2.128c-2.371.547-5.254 1.266-7.2 2.801-.28.223 0 .696.344.586 1.125-.375 2.18-1.02 3.27-1.476a27.347 27.347 0 0 1 3.78-1.262.322.322 0 0 0 .2-.164.33.33 0 0 0 .024-.258.322.322 0 0 0-.164-.2.322.322 0 0 0-.254-.027zm-.641 1.477c-1.164.543-2.328 1.09-3.523 1.602-.989.316-1.938.726-2.844 1.234-.117.078-.149.184-.094.312.055.13.152.18.29.149a12.508 12.508 0 0 0 3.116-1.192c1.133-.5 2.262-1.011 3.38-1.55.374-.18.046-.735-.325-.555zm-1.477 2.324c-1.824.578-4.355 1.313-5.68 2.723-.07.07-.077.148-.03.234.05.086.124.117.222.09a16.93 16.93 0 0 0 2.484-1.223 24.809 24.809 0 0 1 3.165-1.257c.363-.11.21-.68-.16-.567zm-1.8 2.379a18.05 18.05 0 0 0-4.836 2.863.305.305 0 0 0-.133.223.326.326 0 0 0 .062.254.35.35 0 0 0 .227.133.323.323 0 0 0 .25-.067 50.588 50.588 0 0 1 4.73-2.918c.34-.144.043-.648-.3-.488zm-.883 2.05c-1.352.813-2.899 1.634-4.02 2.767a.354.354 0 0 0-.105.242.365.365 0 0 0 .082.25.37.37 0 0 0 .484.082c1.375-.785 2.61-1.86 3.957-2.696.403-.25.016-.894-.398-.644zm-.051 2.712c.313-.27-.133-.711-.45-.45-.589.485-1.187.95-1.796 1.415-.52.312-.98.691-1.39 1.136-.133.18.085.418.277.368a5.57 5.57 0 0 0 1.683-1.09 37.35 37.35 0 0 0 1.676-1.38zm-1.707 3.473a18.62 18.62 0 0 1 1.512-1.372c.289-.234-.098-.746-.403-.515-.547.402-1.074.836-1.574 1.293-.37.344-1.09.855-1.05 1.406 0 .152.074.23.226.234.547-.043.93-.68 1.289-1.046zm.098 1.878c.316-.378.648-.75.984-1.09a.376.376 0 0 0 .09-.261.374.374 0 0 0-.113-.258.374.374 0 0 0-.258-.113.376.376 0 0 0-.262.09 24.31 24.31 0 0 0-1.062 1.129c-.278.32-.73.707-.715 1.156 0 .105.039.187.12.246a.294.294 0 0 0 .27.055c.434-.125.684-.633.946-.954zm1.593.267c.246-.337-.316-.77-.578-.446l-1.168 1.441a2.41 2.41 0 0 0-.754 1.313c0 .086.036.156.106.207a.237.237 0 0 0 .226.043c.485-.153.774-.668 1.063-1.086zm.438 1.808c.066-.157.027-.278-.121-.364-.149-.09-.274-.062-.375.075-.34.511-.656 1.043-.942 1.586-.312.44-.484.93-.52 1.468.005.11.056.188.157.227a.237.237 0 0 0 .274-.047c.367-.398.628-.856.78-1.371.24-.527.49-1.05.747-1.574zm-.938 3.957a.25.25 0 0 0 .184.172c.09.023.172 0 .242-.063a3.18 3.18 0 0 0 .656-1.387c.204-.582.407-1.16.633-1.738.137-.332-.418-.543-.582-.246-.285.547-.543 1.14-.797 1.727a2.63 2.63 0 0 0-.336 1.535zm1.438-1.055c-.14.46-.293.918-.43 1.375a2.097 2.097 0 0 0-.176 1.195c.032.09.094.149.188.172a.234.234 0 0 0 .242-.066c.27-.313.426-.676.477-1.086.125-.465.234-.934.351-1.399a.323.323 0 0 0-.027-.261.311.311 0 0 0-.203-.16.314.314 0 0 0-.258.027.33.33 0 0 0-.164.203zm.441 3.39c.012.133.082.212.215.227.133.02.223-.035.27-.16.12-.539.21-1.086.273-1.633.055-.367-.5-.547-.547-.152-.101.566-.172 1.14-.21 1.719zm.778 1.919a.233.233 0 0 0 .18.113.23.23 0 0 0 .202-.067.972.972 0 0 0 .196-.66c0-.277.07-.543.125-.82.094-.418-.543-.598-.64-.18a7.551 7.551 0 0 0-.15.84.944.944 0 0 0 .087.774zm8.312-11.609c.063 1.09-.125 2.288.028 3.382.046.29.464.234.546 0 .32-1.035.153-2.32.067-3.383-.047-.394-.668-.406-.64 0zm1.61 1.292c-.188 1.418-.692 3.184-.399 4.606a.233.233 0 0 0 .207.18.23.23 0 0 0 .25-.122c.621-1.34.547-3.219.688-4.664.054-.484-.688-.469-.746 0zm1.46 1.621-.28 3.11a8.379 8.379 0 0 0 0 2.722c.038.168.323.23.398.051a7.718 7.718 0 0 0 .414-2.547c.082-1.086.152-2.219.234-3.332.024-.488-.723-.484-.766-.004zm1.598 1.008c-.183 2.09-.719 4.68-.168 6.734a.23.23 0 0 0 .235.165.227.227 0 0 0 .23-.165c.598-2.054.246-4.605.324-6.734.02-.402-.586-.39-.62 0zm1.969 7.336c.402-1.527.058-3.406.055-4.98-.024-.172-.125-.258-.297-.258-.176 0-.274.086-.297.258-.055 1.546-.367 3.492.125 4.98.031.102.101.152.207.152.105 0 .172-.05.207-.152zm1.34-.266c.293-.68.136-1.632.136-2.363a.323.323 0 0 0-.105-.242.319.319 0 0 0-.242-.102.322.322 0 0 0-.246.102.323.323 0 0 0-.106.242c0 .73-.156 1.684.137 2.363a.228.228 0 0 0 .215.121.225.225 0 0 0 .21-.12zm.824-19.445c0 .582 0 1.168-.066 1.75a4.721 4.721 0 0 0-.036 1.555.23.23 0 0 0 .2.168c.097.015.175-.024.234-.106.543-.898.336-2.375.285-3.367a.292.292 0 0 0-.09-.219.3.3 0 0 0-.218-.09.3.3 0 0 0-.22.09.278.278 0 0 0-.09.22zm2.078 1.508-.262 2.113a5.383 5.383 0 0 0-.082 1.871.22.22 0 0 0 .196.172.22.22 0 0 0 .23-.11 5.113 5.113 0 0 0 .316-1.78l.211-2.266c.04-.39-.566-.379-.609 0zm1.617 1.036c-.308 1.66-.847 3.433-.82 5.128.016.144.094.23.242.25.145.02.246-.04.3-.176.59-1.562.684-3.379.942-5.02.082-.433-.574-.628-.664-.183zm1.395 1.565c-.352 1.723-1.09 3.813-.832 5.582a.222.222 0 0 0 .191.16.218.218 0 0 0 .227-.105c.781-1.578.793-3.73 1.09-5.445.078-.442-.582-.637-.676-.192zm1.874.891c-.155.914-.32 1.828-.484 2.719a5.408 5.408 0 0 0-.175 2.18.217.217 0 0 0 .191.16.213.213 0 0 0 .223-.106 5.558 5.558 0 0 0 .547-2.18l.39-2.574c.086-.453-.61-.652-.691-.199zm1.544 1.184c-.203.828-.399 1.66-.578 2.5a4.068 4.068 0 0 0-.192 2.015.231.231 0 0 0 .2.164c.101.016.18-.02.238-.105.406-.578.422-1.352.543-2.035.136-.79.289-1.574.445-2.36.082-.421-.547-.609-.656-.18zm1.356 1.96a94.5 94.5 0 0 0-.446 2.255 2.65 2.65 0 0 0 0 1.632.235.235 0 0 0 .176.118.237.237 0 0 0 .199-.067c.277-.445.41-.93.398-1.453a38.61 38.61 0 0 1 .313-2.328c.039-.383-.582-.563-.64-.156zm1.081 2.626a4.333 4.333 0 0 0-.394 1.671.226.226 0 0 0 .168.165c.09.023.168.003.234-.059.176-.215.3-.457.375-.727.11-.289.203-.578.305-.859.152-.434-.543-.629-.688-.191zM56.05 97.324c3.11-.996 6.31-1.492 9.54-.761a11.89 11.89 0 0 1 4.148 1.753c1.13.762 2.051 1.778 3.27 2.434.133.07.242.047.332-.07.094-.118.086-.23-.016-.34-4.547-5.188-11.144-5.988-17.375-3.465-.289.105-.187.547.102.45zm-22.964 25.543c.61.164 1.422-.176 2-.355.129-.055.176-.153.137-.29-.035-.132-.121-.195-.262-.179-.34.098-.676.18-1.016.273a2.572 2.572 0 0 0-.89.309c-.051.031-.075.074-.067.133.008.058.043.094.098.11zm-.363 1.067c.375.027.734-.028 1.09-.16a44.86 44.86 0 0 0 1.277-.36c.144-.07.191-.184.148-.336-.047-.152-.148-.223-.304-.207a31.18 31.18 0 0 1-1.2.32 2.91 2.91 0 0 0-1.09.356c-.109.086-.124.348.079.387zm2.347-.161c-.437.079-.867.172-1.293.282a2.413 2.413 0 0 0-1.035.382c-.164.137 0 .36.16.38.375-.02.739-.102 1.09-.247.395-.11.801-.203 1.203-.285.403-.078.207-.574-.125-.512zm-2.152 1.61c-.137.101-.04.305.094.347a2.851 2.851 0 0 0 1.633-.16c.66-.156 1.308-.363 1.953-.543.152-.058.203-.164.16-.316-.043-.152-.145-.215-.301-.184a28.48 28.48 0 0 1-1.988.434 3.377 3.377 0 0 0-1.551.422zm-.191 1.507c.722 0 1.425-.109 2.113-.328.785-.175 1.562-.363 2.344-.542.359-.082.199-.618-.153-.547-.793.148-1.582.289-2.37.445a6.65 6.65 0 0 0-2.048.547c-.101.058-.133.144-.105.254.031.113.105.168.219.172zm1.945.895c.965-.207 1.933-.41 2.902-.61.383-.081.211-.644-.164-.581-.91.164-1.816.328-2.722.48a6.62 6.62 0 0 0-2.352.586c-.152.09-.148.38.055.41a6.186 6.186 0 0 0 2.28-.285zm-1.547 1.602c1.848.086 3.941-.637 5.75-.985.46-.086.262-.777-.188-.695-1.828.313-4.015.39-5.714 1.121-.297.14-.118.547.152.559zm1.137.703c-.168.125-.192.453.062.5a4.82 4.82 0 0 0 2.297-.375 36.017 36.017 0 0 0 2.762-.883c.457-.156.273-.883-.203-.734-.86.273-1.73.543-2.606.75-.758.199-1.668.261-2.312.742zm1.707 1.328c-.16.113-.121.414.11.402a8.834 8.834 0 0 0 2.366-.703c.883-.308 1.766-.61 2.649-.906.293-.106.176-.547-.133-.477-.89.262-1.785.547-2.672.809a8.054 8.054 0 0 0-2.32.875zm1.043.972c-.11.07-.149.169-.114.294.032.125.114.191.247.191.89-.094 1.753-.3 2.593-.617.965-.274 1.922-.547 2.887-.801.176-.074.238-.2.188-.383-.051-.183-.168-.262-.356-.234-.973.234-1.945.469-2.91.726a9.4 9.4 0 0 0-2.535.825zm2.414 1.258c.781-.109 1.558-.386 2.328-.543a11.48 11.48 0 0 0 2.086-.636c.363-.153.101-.778-.274-.645-1.363.512-3.218.332-4.402 1.211-.144.106-.184.242-.113.41.07.168.195.235.375.203zm1.129.552a.255.255 0 0 0-.07.12.286.286 0 0 0 0 .14.318.318 0 0 0 .07.122.34.34 0 0 0 .12.07 3.772 3.772 0 0 0 1.673-.285 42.63 42.63 0 0 0 1.968-.62c.45-.145.262-.845-.195-.708-.656.195-1.324.383-1.988.547a4.048 4.048 0 0 0-1.578.613zm2.035.417a.233.233 0 0 0-.067.203.248.248 0 0 0 .118.176c.468.152.933.137 1.39-.05a13.619 13.619 0 0 0 1.742-.544c.457-.172.262-.91-.203-.734a13.15 13.15 0 0 1-1.633.504 2.686 2.686 0 0 0-1.347.445zm2.512 1.285c.578-.234 1.132-.484 1.734-.675a.31.31 0 0 0 .187-.165.328.328 0 0 0 .028-.25.355.355 0 0 0-.153-.199.33.33 0 0 0-.25-.043c-.628.164-1.238.383-1.828.664-.37.18-.11.809.282.668zm1.531.555c.547.277 1.293-.043 1.781-.336a.31.31 0 0 0 .117-.426.297.297 0 0 0-.187-.148.298.298 0 0 0-.239.031 3.014 3.014 0 0 1-.765.305c-.242.035-.48.105-.707.207a.2.2 0 0 0-.11.183.2.2 0 0 0 .11.184zm-19.387-22.414a.17.17 0 0 0-.074.2c.023.085.078.132.168.136a9.359 9.359 0 0 0 2.484-.707c.27-.094.153-.543-.12-.43-.43.149-.86.281-1.29.414a6.863 6.863 0 0 0-1.168.387zm-1.359-.926c-.043.047-.059.102-.04.16a.162.162 0 0 0 .114.121c.469.043.914-.027 1.348-.21.543-.149 1.086-.29 1.671-.426.27-.07.153-.477-.12-.418a101 101 0 0 1-1.688.36 2.633 2.633 0 0 0-1.285.413zm.047-.539a5.232 5.232 0 0 0 2.18-.277c.343-.082.195-.594-.141-.547-.34.05-.727.137-1.09.176a3.67 3.67 0 0 0-.926.12c-.156.016-.234.098-.242.255-.008.156.066.246.219.273zm.289-1.378c.203.054.406.054.609 0l.648-.102c.172-.055.239-.168.196-.344-.051-.176-.168-.242-.348-.2l-.648.098c-.2.008-.38.07-.543.184-.16.102-.043.305.086.363zm1.3 17.16a11.996 11.996 0 0 0-.8-3.012c-.832-1.703-2.325-2.813-3.813-3.891-.195-.14-.43.172-.254.336 1.899 1.848 3.332 3.539 3.813 6.219.277 1.562.543 3.324 2.21 3.941.239.09.509-.242.344-.45a7.189 7.189 0 0 1-1.5-3.144zm21.321 10.683c-2.637-.586-5.344-.395-7.961-1.246-2.727-.887-5.172-2.535-7.63-4.027-.206-.125-.46.183-.265.347 4.39 3.57 9.98 6.387 15.852 5.528.308-.051.289-.536.004-.602zm68.16-59.43c-1.246-.027-2.637-.175-3.856.114-.148.03-.164.289 0 .316 1.243.207 2.598.043 3.856.062.144-.02.215-.101.215-.246 0-.144-.07-.226-.215-.246zm-.152 1.043c-1.91.211-3.938.16-5.817.543-.308.063-.207.489.067.512 1.878.18 3.964-.258 5.816-.574.262-.07.203-.508-.066-.48zm-.668 1.258a60.95 60.95 0 0 1-3.371.285c-.997-.035-1.981.04-2.961.223-.094.027-.137.09-.137.187 0 .098.043.16.137.188 1.918.5 4.468-.086 6.406-.356.297-.039.258-.558-.074-.527zm-.758 1.399c-2.246.175-4.61.261-6.805.789-.137.054-.195.156-.176.3.02.145.102.227.246.246 2.246-.105 4.496-.546 6.735-.753.386-.032.39-.614 0-.582zm-.813 1.3a63.435 63.435 0 0 0-6.742 1.008c-.36.082-.289.688.086.649 2.254-.235 4.496-.707 6.742-1.012.367-.051.285-.692-.086-.645zm-.621 1.446c-2.433.402-4.902.722-7.32 1.226-.383.082-.305.754.098.703 2.48-.308 4.953-.808 7.414-1.23.464-.082.265-.793-.192-.7zm-.746 1.691c-2.43.469-5.078.813-7.402 1.691-.281.106-.278.621.082.579 2.511-.317 5.015-1.122 7.5-1.633.43-.082.25-.719-.18-.637zm-.5 1.758c-2.426.41-5.05.773-7.332 1.703-.164.07-.223.191-.176.363.047.172.16.246.34.219 2.457-.43 4.863-1.238 7.32-1.719.375-.07.211-.625-.152-.566zm-1.586 1.898c-1.09.301-2.152.61-3.222.922-.985.207-1.922.535-2.817.984-.121.07-.16.172-.125.305s.121.2.258.203c.992-.14 1.953-.394 2.883-.761a179.23 179.23 0 0 1 3.215-.965.355.355 0 0 0 .078-.653.361.361 0 0 0-.27-.035zm-.894 2.18c-1.996.543-4.614 1.035-6.332 2.227-.13.093-.16.214-.098.363.062.148.172.207.332.18a17.777 17.777 0 0 0 3.129-1.09c1.043-.375 2.086-.739 3.144-1.086.137-.086.184-.207.137-.364-.043-.156-.148-.234-.312-.23zm-1.411 2.035c-1.164.414-2.332.82-3.492 1.242-.504.184-1.476.352-1.398 1.086a.28.28 0 0 0 .039.14.34.34 0 0 0 .101.099c.043.023.09.039.141.039a.285.285 0 0 0 .137-.036c.703-.37 1.43-.68 2.18-.933l2.457-1.016c.355-.176.218-.758-.165-.62zm-2.007 2.715c-1.18.406-2.555.656-3.63 1.281a.355.355 0 0 0-.152.445.344.344 0 0 0 .176.18c.078.04.164.047.25.024 1.188-.235 2.383-.954 3.496-1.41.305-.133.192-.626-.14-.52zm-2.692 2.094a1.301 1.301 0 0 0-.547.254c-.054.058-.074.125-.054.207a.21.21 0 0 0 .148.152.738.738 0 0 0 .32 0l.258-.078a.263.263 0 0 0 .164-.125.274.274 0 0 0 .028-.207.269.269 0 0 0-.118-.168.257.257 0 0 0-.199-.035zm8.477.312a16.4 16.4 0 0 0 3.472.195c.165 0 .247-.078.247-.242 0-.164-.082-.246-.247-.246a16.643 16.643 0 0 0-3.472 0c-.078.02-.113.07-.113.149 0 .078.035.125.113.144zm-2.055 1.785c1.781.235 3.734-.078 5.527-.16.426 0 .43-.676 0-.66-1.812.07-3.812-.078-5.593.32-.305.067-.196.465.066.5zm4.188.586-2.942.215a9.223 9.223 0 0 0-2.574.332c-.188.07-.234.383 0 .426a8.89 8.89 0 0 0 2.574-.094l2.942-.27c.386-.034.398-.644 0-.609zm-.903 1.282c-2.23.214-4.87.097-7 .808-.113.035-.16.113-.144.227.015.117.082.18.199.187 2.207.258 4.738-.367 6.945-.601.39-.043.403-.657 0-.621zm-1.563 1.835c-2.222.165-4.905 0-7.007.72-.106.027-.152.093-.137.202.012.11.074.164.188.16 2.207.262 4.742-.39 6.957-.624.285-.04.297-.481 0-.458zm-1.675 1.56c-1.84.276-3.898.347-5.664.944-.16.055-.23.168-.207.336.02.172.117.258.289.27 1.894.027 3.91-.547 5.781-.856.457-.078.242-.746-.199-.695zm-.57 1.714c-1.09.125-2.18.277-3.235.484-1.058.207-2.207.34-3.101.907-.106.062-.145.156-.114.277.032.117.11.18.235.18a12.935 12.935 0 0 0 2.722-.516 42.21 42.21 0 0 1 3.47-.57c.491-.055.491-.825.023-.762zm-1.063 2.273-2.75.723a7.3 7.3 0 0 0-2.37.797c-.102.062-.138.152-.106.27.03.117.105.175.226.183a7.394 7.394 0 0 0 2.45-.512l2.726-.765a.32.32 0 0 0 .21-.164.334.334 0 0 0 .04-.266.35.35 0 0 0-.16-.219.354.354 0 0 0-.266-.047zm-1.867 2.188c-1.922.347-4.36.66-6.047 1.672-.223.136-.148.543.149.543.968-.188 1.918-.45 2.847-.778a49.578 49.578 0 0 1 3.235-.761c.441-.098.25-.758-.184-.676zm-3.425 2.406c-.766.23-1.513.48-2.247.774-.543.21-1.191.386-1.52.894a.179.179 0 0 0 .004.191.18.18 0 0 0 .165.094c.605.063 1.238-.375 1.78-.597a26.78 26.78 0 0 1 1.99-.707c.41-.13.241-.766-.173-.649zM97.918 92.18a6.29 6.29 0 0 0 1.562-1.008c.243-.168 0-.543-.234-.395a6.574 6.574 0 0 0-1.492 1.133c-.09.113-.012.332.164.27zm-.805 1.695a4.258 4.258 0 0 0 1.559-.758l1.805-1.09c.128-.09.156-.203.078-.336-.082-.136-.192-.171-.332-.105l-1.75.934a4.6 4.6 0 0 0-1.524.945c-.105.148-.043.441.164.41zm-.828 2.055c.613 0 1.16-.493 1.664-.805.649-.398 1.29-.809 1.934-1.215a.244.244 0 0 0 .125-.164.25.25 0 0 0-.028-.203.257.257 0 0 0-.164-.121.248.248 0 0 0-.203.027c-.672.356-1.347.707-2.011 1.09-.512.293-1.207.543-1.493 1.086a.2.2 0 0 0 .004.203.183.183 0 0 0 .172.102zm-.137 1.695c.622 0 1.192-.465 1.727-.75.668-.367 1.328-.746 1.992-1.125.317-.172.04-.625-.277-.473-.688.332-1.38.66-2.063 1.004-.547.278-1.222.477-1.582.989a.22.22 0 0 0 0 .238.218.218 0 0 0 .203.117zM96.07 99.2a3.15 3.15 0 0 0 1.27-.548l1.437-.761c.371-.196.047-.758-.324-.543l-1.445.754a3.162 3.162 0 0 0-1.137.746c-.117.132.04.355.2.351zm3.016-.259c-.379.223-.758.442-1.152.645a7.944 7.944 0 0 0-1.172.61.268.268 0 0 0-.157.156.286.286 0 0 0-.003.226.293.293 0 0 0 .16.16.285.285 0 0 0 .226 0c.422-.125.82-.308 1.192-.543.41-.23.804-.476 1.199-.73a.307.307 0 0 0 .14-.18.302.302 0 0 0-.207-.37.302.302 0 0 0-.226.026zm-1.168 2.321-.207.101c-.082.051-.106.121-.07.215.043.086.109.121.207.098l.23-.047a.179.179 0 0 0 .129-.102.195.195 0 0 0 .004-.168.182.182 0 0 0-.121-.117.191.191 0 0 0-.172.02zm-3.898 1.058a14.198 14.198 0 0 1-.063-5.386c.043-.301-.394-.446-.473-.125-.39 1.742-1.02 4.105.114 5.691.066.129.164.164.293.105.132-.054.171-.148.129-.285zm8.05 15.68a15.77 15.77 0 0 0-1.554 1.023c-.051.055-.059.118-.032.188.032.07.082.11.157.113a3.413 3.413 0 0 0 1.761-.894c.239-.192-.082-.61-.332-.43zm2.782 11.402c1.007.078 2.14-.543 3.007-.996.305-.16.032-.61-.273-.46a11.2 11.2 0 0 1-1.531.632c-.45.106-.883.254-1.301.45-.192.097-.086.359.098.374zm.222-1.207a11.84 11.84 0 0 0 2.617-.707c.332-.133.184-.664-.148-.547-.832.344-1.695.66-2.543.961-.098.024-.133.086-.11.184.028.098.087.133.184.11zm-2.015 3.227c1.73 0 3.652-.871 5.238-1.484.293-.114.183-.579-.133-.485-1.672.488-3.66.793-5.203 1.602-.082.05-.11.125-.082.218.023.094.086.145.18.149zm4.981-.598c-1.74.692-3.743.867-5.356 1.844-.29.18-.102.7.246.574 1.757-.644 3.605-1.16 5.316-1.937.266-.121.098-.59-.207-.48zm-.33 1.41c-.858.328-1.726.637-2.581.98-.793.25-1.55.59-2.266 1.016-.117.086-.148.196-.093.329.058.136.156.191.3.164a10.487 10.487 0 0 0 2.32-.883c.852-.36 1.684-.75 2.52-1.133.266-.11.074-.559-.2-.473zm-.886 1.816c-.691.345-1.394.665-2.113.95-.613.195-1.211.43-1.797.695-.32.176-.078.59.234.547 1.356-.187 2.805-1.008 4.016-1.633.387-.199.047-.742-.34-.558zm-.281 2.25c.394-.195.047-.757-.34-.581l-1.379.61c-.386.175-.789.25-.953.663-.039.168.02.274.188.32.402.137.777-.171 1.136-.347zm.129 1.204c.348-.266.039-.86-.356-.61-.57.329-1.117.704-1.632 1.118-.344.304.093.82.472.613.531-.336 1.04-.71 1.516-1.121zm-.899 2.129c.239-.235.5-.446.778-.625a.34.34 0 0 0 .144-.215.34.34 0 0 0-.043-.254.329.329 0 0 0-.199-.16.337.337 0 0 0-.254.02 5.148 5.148 0 0 0-.972.687c-.364.332.187.89.546.547zm.937.047a8.02 8.02 0 0 1-1.089.761c-.14.086-.187.211-.148.368a.306.306 0 0 0 .082.136.29.29 0 0 0 .312.082c.48-.222.887-.539 1.223-.949.082-.125.07-.242-.031-.348-.106-.109-.22-.125-.348-.05zm9.575-8.535c1.02 1.011 2.11 2.296 3.488 2.804.227.082.332-.219.211-.363-1.02-1.281-2.515-2.324-3.687-3.48a18.924 18.924 0 0 0-3.559-3.02c-.242-.145-.515.2-.304.394 1.296 1.188 2.593 2.391 3.851 3.665zm2.922 4.515a23.253 23.253 0 0 0-2.465-2.722c-.902-.977-1.758-1.989-2.668-2.958-.152-.164-.426.051-.308.247a22.06 22.06 0 0 0 2.3 3.101c.79 1.04 1.715 1.93 2.786 2.672.218.137.5-.125.355-.34zm-4.067-1.492c-.449-.676-.902-1.344-1.328-2.031a.25.25 0 0 0-.344-.09.23.23 0 0 0-.116.152.234.234 0 0 0 .027.192c.375.77.762 1.53 1.195 2.265a5.6 5.6 0 0 0 1.285 1.727c.215.164.52-.106.442-.34a7.743 7.743 0 0 0-1.16-1.875zm-1.968-.223c-.188-.312-.617-.039-.477.278.258.582.512 1.164.782 1.734.136.484.37.922.695 1.309a.286.286 0 0 0 .39 0 .3.3 0 0 0 .075-.121c.168-.489-.16-.98-.395-1.399-.336-.61-.707-1.203-1.07-1.8zm-.469 1.695c-.16-.277-.656-.085-.547.231.176.473.313.957.403 1.453.082.418.046.93.37 1.242.071.059.15.086.239.075a.288.288 0 0 0 .21-.137c.29-.387.087-.969-.034-1.39a6.949 6.949 0 0 0-.64-1.473zm-.493 1.602a.3.3 0 0 0-.089-.219.292.292 0 0 0-.219-.09.286.286 0 0 0-.218.09.29.29 0 0 0-.094.22c-.028.35-.016.698.035 1.046.004.352.125.656.363.918.164.133.5.125.543-.144a1.821 1.821 0 0 0-.16-.852 3.895 3.895 0 0 1-.16-.969zm10.782-2.379c.473 1.282.625 2.723 1.188 3.946.101.218.39.082.406-.106.121-1.324-.512-2.8-.996-4.004-.145-.36-.735-.21-.598.164zm-.179 2.34c-.086-.457-.762-.254-.692.192.18 1.144.18 2.597.719 3.632.144.282.5.106.543-.144a5.58 5.58 0 0 0-.195-1.758c-.137-.64-.25-1.285-.376-1.922zm-1.68 1.504c.226 1.781.137 3.707.578 5.441.059.254.492.282.547 0 .281-1.773-.207-3.777-.547-5.52-.094-.296-.613-.237-.578.079zm-1.258 3.683c.168.817.344 1.633.48 2.458.067.824.211 1.636.434 2.433.035.117.11.176.234.176.122 0 .2-.059.23-.176.415-1.57-.288-3.566-.636-5.097-.11-.485-.832-.278-.742.207zm.039 2.22c-.094-.426-.715-.243-.648.18.12.73.203 1.468.246 2.206-.032.54.047 1.063.234 1.57a.22.22 0 0 0 .2.114c.09 0 .156-.04.202-.114.211-.609.243-1.23.098-1.859a22.112 22.112 0 0 0-.332-2.098zm-.828 2.324a.35.35 0 0 0-.11-.266.367.367 0 0 0-.53 0 .35.35 0 0 0-.11.266c0 .488.035 1.578.637 1.722.113.04.199.008.265-.09a.863.863 0 0 0 0-.734 3.932 3.932 0 0 1-.152-.898zm9.524-40.317c-1.837.461-3.817.774-5.57 1.524-.161.066-.087.355.089.34 1.883-.231 3.762-.97 5.582-1.493.125-.035.168-.113.133-.238-.035-.121-.114-.168-.235-.133zm-6.075.578a8.585 8.585 0 0 0 2.559-.547l2.886-.804c.153-.043.211-.14.168-.293-.043-.153-.14-.211-.293-.168l-2.914.707a8.496 8.496 0 0 0-2.5.777c-.07.051-.093.113-.07.195.024.083.078.126.164.133zm.075-1.047a14.061 14.061 0 0 0 2.964-.73c.106-.04.145-.117.114-.227-.032-.113-.106-.156-.22-.136-.945.28-1.976.433-2.902.777-.156.063-.152.328.043.316zm3.597 2.892c-.137.112 0 .304.129.32.727.07 1.5-.31 2.18-.544.8-.265 1.593-.543 2.39-.84.301-.101.18-.57-.129-.476-.863.262-1.726.504-2.59.762a5.427 5.427 0 0 0-1.98.777zm2.555.839a.245.245 0 0 0-.055.281.255.255 0 0 0 .238.16 4.87 4.87 0 0 0 1.356-.457c.496-.172.996-.32 1.504-.437.375-.086.215-.637-.153-.543a12.2 12.2 0 0 0-1.632.406c-.47.094-.891.29-1.258.59zm1.5 1.066c-.063.121-.035.223.082.293.273.16.547 0 .824-.066l1.008-.285c.168-.059.23-.176.18-.348-.047-.172-.157-.238-.333-.2l-1.02.259c-.28.062-.581.074-.741.347zm1.422.875c-.153.051-.133.317.046.293l.668-.086a.189.189 0 0 0 .157-.074.195.195 0 0 0 .05-.164.207.207 0 0 0-.261-.176zm11.793-2.265c1.55-3.38 2.09-7.465 2.664-11.114.054-.347-.461-.507-.543-.152-.762 3.7-2.07 7.406-2.57 11.148-.028.235.35.325.449.118zm-27.786 3.367c1.996.336 4.04.293 6.047.648.23.035.332-.312.098-.355-1.926-.383-4.14-.848-6.102-.598-.156.02-.234.27-.043.305zm7.219 1.976c.149-.03.223-.12.223-.273 0-.152-.074-.242-.223-.273-2.594-.047-5.18-.227-7.77-.282-.421 0-.402.598 0 .64 2.587.259 5.176.321 7.77.188zm.3.793c-1.007.07-2.01.11-3.019.098a10.15 10.15 0 0 0-2.652.04c-.11.038-.164.112-.164.23 0 .117.055.195.164.23a6.982 6.982 0 0 0 2.652.203c1.008 0 2.012-.086 3.02-.18.387-.03.387-.652 0-.62zm-.077 1.524c-1.051.066-2.363-.059-3.356.316-.218.082-.273.438 0 .489 1.04.226 2.305-.098 3.356-.196.383-.035.398-.629 0-.61zm2.281 3.148c-.125-.093-.242-.086-.355.024-.11.113-.118.23-.024.355 1.66 1.836 3.942 2.723 5.805 4.29 2.12 1.796 3.144 3.964 4.086 6.534.133.348.707.325.687-.093-.105-2.348-1.508-4.582-3.129-6.22-2.062-2.097-4.957-2.921-7.07-4.89zm-1.191-41.047c3.605 0 6.75.606 9.902 2.457 2.887 1.7 5.121 4.079 7.719 6.133a.286.286 0 0 0 .21.086.277.277 0 0 0 .208-.086.297.297 0 0 0 .09-.207.302.302 0 0 0-.086-.21c-4.106-4.688-11.442-10.294-18.121-8.712a.27.27 0 0 0-.153.297c.02.137.098.215.23.242zm12.941 53.969c1.738-3.156 1.711-7.62 1.844-11.117.156-4.426.25-8.84.16-13.27 0-.14-.07-.21-.211-.21-.14 0-.21.07-.21.21-.388 4.211-.548 8.415-.767 12.633-.09 1.906-.187 3.813-.417 5.711-.227 1.899-.805 3.914-.97 5.887.005.152.079.246.227.289.149.039.262-.004.344-.133zM47.727 85.344c1.375-.196 2.687-.73 4.043-1.02a22.706 22.706 0 0 1 4.902-.476c1.555.015 3.094.199 4.61.543 1.519.343 4.355.789 4.902 2.515.023.074.07.133.14.172.07.04.145.047.223.024a.281.281 0 0 0 .18-.133.31.31 0 0 0 .035-.219c-.492-2.898-5.727-3.469-8.032-3.719-3.445-.375-8.304-.258-11.21 1.899-.137.07-.168.172-.102.308.07.137.172.172.309.106zm0 0"/></svg>