<svg xmlns="http://www.w3.org/2000/svg" width="250" height="250" version="1.0" viewBox="0 0 187.5 187.5"><defs><clipPath id="a"><path d="M24 0h154.96v186H24zm0 0"/></clipPath><clipPath id="b"><path d="M8.414 98H21v12H8.414zm0 0"/></clipPath></defs><g clip-path="url(#a)"><path fill="#231f20" d="M145.18 34.625c.16 1.234.273 2.18.41 3.117.047.297.203.567.555.528.378-.043.417-.383.394-.665-.082-1.03-.277-2.027-1.36-2.98zm-5.946 80.582c.012.742.164 1.426-.125 2.102-.234.543.207.921.586.68.672-.427.703-1.337.809-2.04.125-.87-.664-.71-1.27-.742zm-7.812-98.594c.305.91.598 1.825.918 2.73.094.27.27.56.625.446.351-.113.3-.422.254-.723-.172-1.058-.637-1.941-1.797-2.453zM82.539 129.207c1.898.594 2.363.215 2.762-2.016-.895.657-1.727 1.266-2.762 2.016zm-3.906-3.906.277.203c.817-.914 1.633-1.813 2.43-2.742.207-.239.59-.54.183-.875-.406-.336-.734-.14-.988.289-.62 1.05-1.27 2.082-1.902 3.125zm-9.043-5.973c.355-.644.7-1.297 1.078-1.926.191-.32.352-.59.008-.918-.422-.406-.735-.12-1.063.125-1.101.84-.031 1.778-.023 2.72zm77.351 7.027c-.539-.843-1.28-1.675-2.351-2.082-.41-.152-.645.551-.508.692a22.201 22.201 0 0 0 2.441 2.12c.133.103.508-.21.418-.73zm-96.171 2.547c-1.614-3.027-1.614-3.027-3.317-.59 1.063.188 2.082.372 3.317.59zm18.113 2.176c-.637-1.148-1.195-2.168-1.766-3.183-.183-.336-.312-.926-.832-.403-.316.32-1.219.422-.762 1.133.747 1.168 1.176 2.824 3.36 2.453zm-25.13-65.793c.106.215.208.43.31.64 2.382-.57 4.355-2.062 6.507-3.132.371-.184.29-.61.145-.941-.13-.301-.414-.2-.594-.098-2.129 1.168-4.246 2.351-6.367 3.531zm16.981 64.996c-1.297-2.191-2.78-3.886-5.152-4.672.254 1.707 3.305 4.567 5.152 4.672zm4.254.403c-.773-1.254-1.144-2.567-2.605-3.118-.778-.293-1.246-1.046-1.625-1.804-.156-.305-.024-.961-.68-.758-.32.101-.68.332-.844.605-.312.512.305.664.532.957.68.887 1.632 1.653 2.039 2.641.605 1.469 1.593 1.68 3.183 1.477zm40.024 1.851c3.62-.172 7.242-.34 10.867-.512-3.738-1.34-8.031-1.117-10.867.512zm-68.16-6.969c2.164.938 5.636-1.355 6.046-3.91-2.558.438-4.414 1.801-6.046 3.91zm32.277-4.379c-2.305 1.891-2.344 1.903-1.293 4.555a22.885 22.885 0 0 0 1.637 3.313c.57.96 1.265 1.863 2.488 2.515-3.07-5.937-3.086-6.004-2.832-10.382zm43.574 8.575c-2.3-2.856-10.305-.965-12.894 2.855 4.105-1.949 8.082-3.586 12.894-2.855zM62.97 52.789c3.035-1.687 5.625-3.129 8.328-4.629-.922-.738-1.766-1.617-2.758-1.14-2.348 1.12-4.422 2.632-5.57 5.77zm2.18-5.523c-.536 0-.672-.043-.762.004-4.16 2.128-6.672 11.128-4.207 15.046.191.313.363.657.797.403.418-.239.183-.61.117-.938-1.082-5.422-.598-10.433 4.054-14.515zm-2.926 9.504c3.562-1.852 7.007-3.641 10.457-5.422.53-.274.863-.532.46-1.211-.363-.617-.69-.848-1.386-.453-2.973 1.687-5.965 3.343-8.953 5-.774.425-.797 1.082-.578 2.086zm33.84 75.554c1.097.426 1.488-.332 1.972-.758 3.2-2.773 6.8-4.586 11.098-4.867.531-.039 1.449.317 1.234-.875-.164-.879-.543-1.402-1.543-1.199-5.144 1.04-9.246 3.75-12.761 7.7zM79.605 45.56c2.2 4.609 2.372 9.421 1.868 14.328-.059.511.004 1.062.129 1.57.175.742.855 1.078 1.464.93.696-.168.688-.867.422-1.461-.441-.996-.511-2.043-.539-3.106-.054-2.05-.015-4.105-.195-6.144-.219-2.41-.734-4.754-3.149-6.117zm-33.41 72.59c-4.277-.63-9.425 1.703-11.43 5.042-.288.48-.976 1.102-.296 1.676.808.692 1.207-.11 1.644-.66 1.79-2.25 4.051-3.805 6.95-4.066 1.417-.125 2.183-.875 3.132-1.993zm-8.812-5.27c-.332-.895-1.188-1.379-1.852-2.004-1.804-1.691-5.367-2.188-7.226-1.059-.61.368-1.364.809-1.153 1.594.227.852 1.137 1.106 1.895.914 2.633-.672 5.121-.418 7.523.828.313.16.668.352.813-.273zm72.828 6.754c-9.043 1.308-18.227 7.523-19.137 13.172 4.805-7.106 11.844-10.352 19.137-13.172zm35.164 3.133c.777.68 1.258 1.086 1.727 1.515.523.48.968 1.02 1.257 1.676.121.277.332.242.582.207 1.196-.164 3.739-2.281 3.844-3.371.18-1.852-1.297-2.606-2.523-3.484-.39-.286-.946-.575-.996.246-.13 2.23-1.594 2.949-3.891 3.21zM51.84 57.812c-.13 1.852.562 4.06 1.047 6.29.113.539.035 1.418 1.093 1.171 1.086-.246.723-.96.602-1.652-.41-2.242-.812-4.457-.66-6.789.148-2.203.621-4.281 1.285-6.355.238-.75.355-1.676-.531-1.977-.89-.3-1.125.656-1.383 1.266-1.012 2.418-1.426 4.957-1.453 8.047zM50.53 68.13c.055.195.11.398.164.598.825.265 1.61.039 2.375-.282 2.551-1.078 5.207-1.933 7.836-2.683 4.309-1.23 8.492-2.825 12.805-4.012 1.168-.32 1.605-.875 1.008-2.137-8.059 2.84-16.125 5.676-24.188 8.516zm91.39 58.133c-9.644 4.644-19.292 4.773-29.116 1.18 3.129 2.644 6.945 3.898 10.84 3.874 5.046-.03 10.062-1.14 15.062-2.015 1.895-.332 2.48-1.559 3.215-3.04zm-64.944 5.383c-1.848-1.258-3.188-2.723-4.086-4.528-1.336-2.68-.926-5.27.687-7.687 1.457-2.188 3.524-3.22 6.195-2.953.461.046 1.168.48 1.29-.368.117-.816-.653-.847-1.204-.968-3.78-.805-7.89 1.722-8.91 5.441-1.086 3.977.219 7.25 2.836 10.215.832.941 1.758 1.18 3.192.848zm38.68-13.856c-10-3.578-22.083 3.3-27.657 14.488.883.418 1.238-.14 1.645-.78.847-1.349 1.636-2.75 2.671-3.95 5.762-6.692 12.77-10.543 21.926-9.3.504.066.93.034 1.414-.458zm25.644.664c.265 1.324 1.867 1.98 2.367 3.348.02.039.254.062.324.008.887-.672 2.055-.54 2.988-1.028 1.004-.531 1.204-2.023.297-2.773-1.297-1.078-1.265-2.254-.625-3.613.22-.457.657-.954.137-1.442-.52-.496-1.11-.21-1.644.027-2.286 1.008-3.196 3.008-3.844 5.473zM71.266 42.617c.109.192.12.262.164.281.257.149.53.262.777.426 3.695 2.453 6.477 5.477 6.523 10.254.024 2.535.043 5.07.192 7.598.148 2.57.965 4.969 2.512 7.043.398.535 1.066 1.351 1.902.543.793-.754.465-1.57-.305-2.094-2.66-1.816-2.953-4.496-2.847-7.363.113-3.059.25-6.137-.657-9.121-1.617-5.34-3.199-7.153-8.261-7.567zm15.23 88.524c-.598 0-1.183.02-1.766-.004-3.273-.14-5.988-1.356-7.73-4.223-1.715-2.828-.66-5.84 2.352-6.836.773-.254 1.367-.625 1.25-1.445-.122-.856-.946-.742-1.567-.75-3.941-.063-6.66 4.937-4.73 8.633 1.46 2.789 3.98 4.375 6.722 5.48 1.336.54 3.032.25 4.563.254.597.004.894-.457.906-1.11zm-11.59-74.262c-.207-1.215-.422-2.43-.625-3.645-.105-.605-.344-.789-.953-.468-3.543 1.863-7.144 3.632-10.64 5.593-1.372.77-.243 2.016-.055 3.008.203 1.063.992.504 1.539.317 3.172-1.098 6.332-2.235 9.512-3.34.722-.25 1.347-.508 1.222-1.465zm10.211 54.566c-.238-5.965-1.562-11.707-4.61-16.843-1.85-3.118-4.35-5.926-8.206-6.872-2.117-.523-4.184.364-5.34 2.227-1.047 1.695-.957 4.535.2 5.84.491.55 1.066 1.07 1.823.558.735-.496.391-1.097-.023-1.668-1.012-1.39-1.195-2.843-.02-4.207 1.192-1.386 2.73-1.8 4.48-1.203a8.735 8.735 0 0 1 3.044 1.766c3.066 2.727 4.668 6.293 5.898 10.094 1.895 5.84 1.035 11.652-.039 17.476-.097.551-.781 1.41.149 1.637.75.184.82-.828 1.05-1.395.965-2.367 1.582-4.812 1.594-7.41zM55.574 122.02c.043.777.133 1.539.813 2.062.633.488 1.336.395 2.027.176.79-.25.559-.887.543-1.473-.023-.922.137-1.887 1.211-2.078 1.152-.2 1.238.887 1.473 1.625.23.723.293 1.496.433 2.25.207 1.11.903 1.746 1.98 2 .426.098.848.055 1.118-.32.246-.344.043-.676-.145-.98-.562-.9-1.144-1.794-1.394-2.844-.133-.567-.332-1.184.14-1.68.528-.555 1.059-.168 1.614.055 1.46.59 2.613-.266 2.402-1.836-.184-1.329-.977-2.278-2.27-2.676-2.64-.809-7.328.746-9.019 2.922-.645.836-.914 1.765-.926 2.797zm-3.543-4.442c-2.332.309-4.738 1.39-6.578 3.582-.855 1.02-1.46 2.156-1.504 3.512-.023.762-.074 1.648.75 2.02.805.359 1.633.085 2.32-.454.274-.215.481-.52.727-.77 1.047-1.085 2.2-1.046 3.106.16.312.415.464.95.73 1.403.457.778 1.191.649 1.887.48.742-.179.636-.765.5-1.277-.574-2.105.066-4.148.426-6.16.37-2.047.257-2.418-2.364-2.496zm62.73-11.86c-.402-.038-.843.391-1.23 1.09-1.297 2.329-2.047 4.88-3.043 7.329-.406 1.004.121 1.218.98 1.261 2.31.114 4.536.532 6.684 1.485.825.363 2.028.262 2.422-.778.719-1.902 1.844-3.535 2.953-5.203.395-.593 1.02-1.363-.05-1.93-.817-.429-1.66-.648-2.274.415-.68 1.172-1.41 2.308-2.137 3.457-.3.472-.597 1.246-1.304.789-.645-.414-.203-1.074.097-1.567.735-1.207 1.516-2.386 2.254-3.593.246-.395.922-.825.145-1.285-.543-.325-.844.011-1.25.503-.992 1.204-1.547 2.594-2.164 3.985-.239.543-.38 1.527-1.203 1.207-.957-.38-.309-1.227-.082-1.828.343-.934.777-1.84 1.214-2.739.696-1.425.012-2.55-2.011-2.597zm-24.804 15.188c2.813-4.965 4.383-10.144 3.55-15.988-.89-6.29-2.671-12.191-6.339-17.418-2.168-3.086-5.234-5.273-8.172-7.547-5.223-4.039-10.902-7.531-15.07-12.805-.305-.386-.637-.527-1.055-.238-.574.399-.039.75.14 1.024 1.196 1.832 2.52 3.566 4.239 4.953 3.676 2.965 7.574 5.633 11.36 8.453 9.628 7.164 14.132 16.816 13.687 28.762-.137 3.722-1.059 7.304-2.34 10.804zm-46.621-4.492c-.75-1.266-1.43-2.426-2.129-3.57-.578-.95-1.414-.508-2.016-.168-.82.457-.058.984.207 1.398.297.465 1.098.774.633 1.446-.55.789-1.164.09-1.703-.141-1.398-.602-2.86-1.617-4.3-1.348-2.473.473-4.86 1.477-6.79 3.211-1.277 1.149-1.258 2.66-.031 3.852 1.246 1.207 2.79 1.941 4.332 2.683.781.375 1.137.22 1.45-.558.558-1.406 1.667-2.395 2.761-3.387 2.117-1.906 4.777-2.652 7.586-3.418zM85.03 82.691c6.57 6.543 9.254 14.47 10.07 23.184.876 9.234-3.277 16.602-8.882 23.465.719.297 1.46.273 1.746-.176 2.637-4.187 6.562-7.394 7.984-12.531 3.953-14.285-.781-27.203-10.918-33.942zm-1.09-9.46c-.187-1.426-.91-2.024-1.687-2.383-2.192-1.028-3.102-2.914-3.781-5.047-1.188-3.715-1.192-7.551-1.164-11.38.03-4.546-2.137-7.784-5.97-9.874-2.581-1.406-5.558-1.676-8.171-.262-6.738 3.656-9.2 11.656-7.203 18.754.27.961.558 1.395 1.7.973 1.019-.38 1.144-.742.862-1.774-1.375-5.125-1.238-9.984 2.61-14.226 4.015-4.434 10.851-3.567 13.574 1.797 1.555 3.054 1.684 6.336 1.664 9.64-.016 3.305.605 6.434 2.266 9.328 1.171 2.051 2.8 3.528 5.3 4.453zm.18 52.699c1.05-.746 1.629-1.532 2.156-2.344 5.594-8.61 5.778-17.711 2.309-27.063-3.074-8.277-9.523-13.582-16.648-18.203-4.09-2.648-7.891-5.586-10.422-9.832-.883-1.48-1.871-.597-2.723-.265-1.258.5-.11 1.187.133 1.644.84 1.563 2.02 2.883 3.273 4.153 2.324 2.363 5.313 3.687 8.121 5.296 9.72 5.579 16.434 13.313 18.66 24.633 1.547 7.852.684 14.985-4.609 21.266-.09.11-.101.281-.25.715zm-5.02 1.668c1.137-.27 1.708-.79 2.212-1.313 2.722-2.836 5.054-5.93 6.054-9.824 1.785-6.945.52-13.57-2.355-19.941-3.434-7.602-9.492-12.692-16.692-16.493-4.703-2.484-8.789-5.53-11.328-10.308-.367-.688-.851-.805-1.441-.477-.805.45-.149.93.101 1.293 2.051 2.977 4.32 5.75 7.145 8.047 2.941 2.395 6.18 4.356 9.426 6.273 7.058 4.176 11.394 10.137 13.3 18.114 1.63 6.808 1.665 13.285-2.035 19.472-1.113 1.856-2.754 3.27-4.386 5.157zm82.434-123.97c-.031-1.112-.472-1.679-1.367-1.784-1.188-.14-2.34-.059-3.426.562-1.789 1.024-3.605 2.008-5.406 3.012-5.613 3.125-11.223 6.266-16.852 9.36-.949.519-1.644.933-.597 1.992.195.199.332.507.383.785.261 1.336.847 1.238 1.921.687 7.864-4.035 15.579-8.355 23.563-12.16 1.035-.492 1.633-1.484 1.781-2.453zm12.77 21.274c-.676-.05-1.297.106-1.918.325-7.957 2.812-15.89 5.687-23.887 8.386-2.621.883-.527 2.219-.508 3.274.031 1.484 1.14.535 1.676.37 8.402-2.577 16.7-5.507 25.148-7.944 1.243-.36 2.387-1.301 2.227-2.82-.164-1.606-1.621-1.415-2.738-1.59zM81.973 109.04c.035-2.617-.496-5.14-1.141-7.656-.289-1.113-1.207-1.195-1.937-1.059-1.004.192-.286 1.004-.22 1.528.11.87.368 1.73.477 2.601.067.535.371 1.336-.453 1.473-.789.129-.82-.676-.945-1.23-.293-1.325-.55-2.653-.867-3.966-.075-.312-.082-.777-.504-.847-.485-.074-.703.367-.961.676-.356.425-.117.91-.067 1.359.188 1.637.426 3.27.586 4.91.055.586.371 1.488-.554 1.598-.946.105-.782-.852-.864-1.438-.23-1.633-.355-3.277-.609-4.906-.18-1.133-1.281-1.09-1.957-.969-.992.176-.176.946-.102 1.403.145.863.485 1.691.723 2.543.098.367.024.722-.379.87-.398.145-.722-.05-.86-.41-.331-.878-.663-1.761-.901-2.667-.211-.817-.524-1.602-1.47-1.387-1.058.238-.66 1.152-.55 1.883.629 3.98 2.5 7.605 3.3 11.53.188.9.571.813 1.216.4 1.671-1.079 3.515-1.555 5.515-1.684 1.031-.067 2.356.98 3.024-.211.507-.903.37-2.172.496-3.285.039-.348.008-.707.004-1.059zm40.035 65.813c-.356.062-.48.058-.582.105-.586.281-1.16.59-1.742.871-18.47 8.883-37.23 9.617-56.313 2.07-.668-.261-1.375-1.23-2.152-.433-.512.523.554 2.992 1.343 3.328.489.203 1.012.32 1.52.465 6.637 1.875 13.473 2.433 20.305 2.918 11.59.82 22.996-.27 34.175-3.547 3.497-1.024 3.532-.914 3.508-4.652-.004-.34-.039-.68-.062-1.125zm4.133-46.504c2.074.011 4.14-.118 6.18-.473 2.742-.484 5.452-1.113 7.827-2.672 2.579-1.691 2.524-3.562-.168-5.094a14.336 14.336 0 0 0-2.757-1.18c-4.47-1.433-9.063-1.57-13.684-1.105-3.367.34-6.687.946-9.633 2.742-2.918 1.778-2.89 3.645.043 5.27 3.793 2.11 7.977 2.406 12.192 2.512zm4.808-108.153c.02-2.457-.844-2.965-2.976-1.777-4.075 2.27-8.153 4.539-12.227 6.805C104.652 31.398 93.56 37.566 82.47 43.75c-1.172.652-1.164 1.383-.082 2.094.625.41.996-.106 1.422-.328 5.086-2.633 10.164-5.282 15.242-7.93 10.21-5.324 20.422-10.64 30.62-15.98.571-.297 1.474-.387 1.278-1.41zM96.551 119.7c.347-.11.52-.129.652-.21 3.297-1.989 6.621-3.903 10.613-4.09.579-.032.762-.387.922-.887 1.188-3.707 2.676-7.293 4.59-10.696.195-.347.5-.714.203-1.136-.578-.817-3.781-.489-4.289.41-.87 1.55-1.469 3.21-2.05 4.883-.169.496-.348 1.12-1.067.859-.594-.215-.402-.793-.285-1.23.418-1.602.957-3.188 1.847-4.57.68-1.063.504-1.79-.523-2.22-1.25-.527-1.266.657-1.531 1.364-.856 2.324-1.57 4.687-2.035 7.12-.11.579-.059 1.567-.965 1.384-.828-.164-.563-1.09-.438-1.664.36-1.672.762-3.336 1.262-4.961.863-2.785.898-2.774-1.75-3.871-.055-.024-.102-.063-.156-.082-1.668-.61-3.008.437-2.899 2.195.164 2.558.418 5.105.11 7.695-.383 3.274-1.2 6.438-2.211 9.707zm47.55-81.816c-.011-2.324-.343-2.574-2.292-1.887-16.09 5.66-32.18 11.324-48.27 16.988-2.73.961-5.441 1.961-8.187 2.871-1.008.333-1.09 1.043-.88 1.797.278 1.024.993.27 1.407.137 19.004-6.09 37.988-12.215 56.988-18.305.961-.308 1.43-.742 1.235-1.601zm-8.976 70.25c-2.574-.004-3.516-1.098-2.938-3.5.188-.774.43-1.551-.316-2.098-.824-.61-1.426.153-2.047.528-3.21 1.925-4.96 1.183-5.629-2.418-.28-1.493-.965-1.84-2.406-1.223-2.105.906-2.727 2.797-3.219 4.781-.238.973-.168 1.64 1.125 1.414.813-.14 1.516.106 2.012.817.402.578 1.027.73 1.66.918 2.328.683 2.856 2.039 1.606 4.128-.633 1.06-1.352 2.07-1.989 3.125-.261.442-.773.938-.5 1.434.297.543.977.215 1.457.172 4.149-.348 8.258-.152 12.32.785.438.098.9.387 1.27-.172.336-.504.106-.875-.199-1.27-1.094-1.402-.633-2.534.691-3.421 1.024-.692 2.125-1.262 3.188-1.903.64-.39 1.484-.757 1.273-1.695-.234-1.023-1.062-1.527-2.07-1.66-.906-.125-1.746.215-2.566.559-.875.367-1.758.687-2.723.699zm-76.133 7.285c3.211-.762 6.059-1.715 8.824.328.625.461 2.235-1.105 2.016-1.965-.48-1.883-1.02-3.754-1.883-5.508-.539-1.09-2.676-1.699-3.73-1.14-1.348.719-2.27.183-2.88-1.063-.671-1.382-.48-2.851-.398-4.336.145-2.726.149-5.468-2.125-7.539-.824-.75-1.73-1.347-2.863-.726-1.07.586-1.289 1.652-1.14 2.758.222 1.652.84 3.175 1.675 4.625.797 1.378 1.61 2.757 1.95 4.34.222 1.038.402 2.085-.09 3.12-.676 1.418-1.524 1.54-2.496.333-.372-.461-.68-.97-1.063-1.415-.273-.312-.672-.562-1.098-.445-.554.149-.336.668-.363 1.05-.02.353.035.704.02 1.056-.098 2.02-2.063 3.23-3.93 2.414-1.266-.551-2.023-1.582-2.555-2.805-.472-1.082-.847-2.21-1.406-3.238-.562-1.04-1.508-1.785-2.738-1.57-1.16.199-1.399 1.32-1.64 2.304-.188.75-.095 1.512-.013 2.277.258 2.532 1.809 4.446 3.016 6.52 1.156 1.988 3.172 2.684 5.383 1.906 1.965-.687 3.933-.879 5.832.156.52.282.914.532 1.379.008.683-.773-.473-.695-.551-1.156-.04-.238-.473-.394-.566-.652-.325-.86-1.625-1.45-.832-2.63.777-1.152 1.93-1.757 3.296-1.78.684-.012 1.504.203 1.618 1.074.156 1.191.613 2.457-.649 3.699zm-32.547 7.398c-.258 2.063.18 3.918.29 5.786.03.511.242.847.714 1.117 2.156 1.226 4.254 2.597 6.664 3.281 15.438 4.375 31.032 8.004 47.176 8.254 14.426.226 28.832-.11 43.102-2.723 8.957-1.644 17.89-3.324 26.554-6.187.57-.192 1.364-.106 1.52-.98.336-1.919.683-3.837.758-6.016-3.078 2.328-6.407 3.492-9.848 4.394-10.352 2.703-20.95 3.664-31.578 4.07-20 .766-39.957.149-59.75-3.132-8.79-1.457-17.61-2.977-25.602-7.864zm.914 8.938c-.21.383.055.95.172 1.5 2.61 12.184 8.434 22.617 17.574 31.082 20.262 18.754 50.418 22.664 74.82 9.703 15.907-8.45 26.59-21.246 31.575-38.625.125-.43.504-.941.172-1.32-.367-.426-.875-.031-1.313.097-14.39 4.172-29 7.032-43.992 8.024-11.285.746-22.597 1.254-33.816.097-15.446-1.593-30.727-4.335-45.192-10.558zm70.262-3.504c.922-.137 1.524-.84 2.223-1.34 1.894-1.344 3.957-2.324 6.144-3.07 1.121-.39 2.278-.594 3.457-.703.848-.078 1.188-.785 1.004-1.371-.254-.778-.844-.149-1.273.027-1.531.61-3.11 1.137-4.574 1.883-2.485 1.27-5.141 2.324-6.95 4.613-1.832.867-3.007 2.367-3.847 4.2l3.816-4.239zm-68.828-14.012c-.113-.16-.14-.23-.184-.246-1.46-.375-2.953-.746-3.07-2.637-.086-1.437 1.172-2.894 3.16-3.343 3.102-.696 5.992-.254 8.293 2.23.414.45.719 1.13 1.563.914.918-.23 1.851-.254 1.28-1.734-.507-1.32-.51-2.774-.124-4.188.394-1.425 1.016-2.742 2.582-3.082 1.57-.34 2.89.348 3.95 1.52 1.066 1.172 1.472 2.683 1.991 4.113.446 1.23 1.18 1.547 2.434 1.383 1.398-.188 1.074-1.148 1.121-1.98.11-1.895 1.57-2.579 3.41-1.63.715.372 1.043 1.094 1.856 1.797.129-1.78-.512-3.097-1.2-4.394-.91-1.719-1.98-3.363-2.332-5.32-.128-.692-.23-1.399-.234-2.102-.008-1.598.598-2.941 2.129-3.566 1.477-.602 2.867-.262 4.129.77 2.098 1.702 2.875 3.972 2.941 6.55.047 1.71-.043 3.422.032 5.133.042.957.253 1.949 1.546.816 1.016-.894 1.985-.176 3.051.356-.117-1.262-.312-2.364-.297-3.453.016-1.426.64-2.332 2.285-2.258 1.504.07 3-.735 4.528-.07.12.058.402-.032.48-.141 1.54-2.074 3.489-1.489 5.469-.739-.45-3.027-3.629-7.035-6.305-8.054-1.14-.438-2.207-.395-3.09.555-.925.988-.324 1.835.274 2.683.852 1.195.742 2.332-.313 3.328-1.078 1.02-2.242.91-3.378.086-1.915-1.387-2.235-3.398-2.012-5.531.273-2.625 1.668-4.488 4.14-5.484.54-.22 1.137-.293 1.856-.473-.914-1.024-2.047-1.613-3.117-2.227-5.598-3.203-10.168-7.476-13.598-12.925-.55-.875-1.066-.864-1.887-.598-1.316.426-3.215-.293-3.379-1.317-.226-1.421.715-2.156 1.93-2.554.734-.239 1.133-.547.805-1.387-.453-1.144-1.078-.305-1.528-.09-1.44.684-2.828 1.473-4.242 2.207-1.238.64-3.164.297-3.547-.738-.5-1.363.313-2.219 1.426-2.848 1.805-1.011 3.57-2.101 5.43-2.988 1.164-.559 1.45-1.289 1.375-2.496-.195-3.106.308-6.125 1.535-8.992 1.059-2.477 2.586-2.782 4.691-1.008 1.918-2.305 3.926-4.402 6.653-5.926 4.734-2.637 9.168-1.484 13.547.5 1.547.703 2.664.98 4.222.11 24.957-13.934 49.957-27.801 74.907-41.758 1.757-.985 3.402-.762 5.09-.418 1.53.308 2.382 2.273 1.785 3.898-.52 1.403-1.387 2.692-2.79 3.313-7.511 3.328-14.632 7.418-21.921 11.183-17.68 9.137-35.293 18.407-52.977 27.543-1.46.754-1.809 1.446-1.293 2.942.375 1.097.54 2.32.527 3.48-.011 1.418.415 1.5 1.637 1.067 12.692-4.52 25.399-8.985 38.106-13.461 16.05-5.653 32.105-11.278 48.14-16.973 1.824-.648 3.383-.09 4.91.61 1.344.616 1.778 2.406 1.07 3.866-.722 1.497-1.925 2.696-3.523 3.028-3.945.828-7.699 2.262-11.511 3.484-25.551 8.188-51.075 16.438-76.618 24.637-1.191.383-1.879.594-1.453 2.195.387 1.469-.828 2.426-2.55 3.082.624.477 1.105.817 1.55 1.2 1.2 1.046 1.45 2.347.578 3.636-.511.758-.46 1.18.125 1.781.41.426.63.997.676 1.602.082 1.086-.11 1.781-1.52 1.738-1.898-.058-3.234-1.07-4.488-2.218-2.351-2.157-3.523-4.989-4.183-8.032-.188-.851-.336-1.273-1.348-.922-2.566.891-5.16 1.711-7.762 2.5-.89.274-1.066.653-.41 1.309 2.086 2.07 4.14 4.117 6.649 5.773 4.882 3.22 10.175 5.797 14.797 9.391 5.222 4.067 8.894 9.266 10.535 15.738.277 1.086.558 1.36 1.597.817.989-.516 2.051-.426 3.067.113.465.242 1.062.66 1.46.535 3.31-1.015 6.012 1.504 9.165 1.485 1.5-.008 2.87.617 2.125 2.691-.344.945.625.57.972.79.485.304.864.179.989-.49.226-1.222.632-2.386 1.27-3.468.687-1.172 1.683-1.973 2.917-2.477 2.367-.957 3.938-.035 4.313 2.504.332 2.184 1.09 2.54 3.054 1.403.309-.176.606-.375.903-.57.937-.618 1.906-.981 2.96-.262 1.102.742 1.372 1.812 1.313 3.082-.039.715-.906 1.527-.062 2.113.89.617 1.937.324 2.898-.059 1.594-.636 3.191-1.386 4.938-.582 1.289.594 2.3 1.45 2.418 3.004.109 1.489-.899 2.227-1.961 2.907-.93.59-2.047.875-2.864 1.78 1.274.657 2.332 1.013 3.399-.405.703-.938 1.832-1.493 3.054-1.645 2.208-.277 3.547 1.316 2.543 3.242-.718 1.38-.421 1.922.903 2.438 1.777.703 3.215 1.968 4.66 3.187.91.766 1.23 1.7 1.137 2.961-1.641 21.828-12.09 38.313-30.418 50.024-.66.421-.942.808-.938 1.66.012 6.023-.031 5.972-5.758 7.648-13.394 3.922-27.004 4.156-40.765 2.707-4.727-.5-9.336-1.414-13.922-2.57-2.059-.52-3.27-1.602-3.266-3.766.004-1.933-.98-2.937-2.648-3.902-20.496-11.805-31.602-29.36-32.403-53.145-.011-.355.032-.73-.078-1.054-.851-2.485.399-4.059 2.293-5.364.532-.363 1.094-.683 1.723-1.078"/></g><path fill="#231f20" d="M24.836 99.367c.02 2.016 2.098 3.934 4.875 4.34 1.809.266 3.621.488 5.367 1.031.899.278 1.813-.14 1.965-.68.383-1.394.98-2.785.902-4.277-.035-.613-.422-1.082-1.058-1.277-.68-.207-.922.203-1.168.738-.461.985-1.278.883-2.106.551-1.054-.422-1.898-1.172-2.765-1.875-.793-.637-1.641-1.137-2.672-1.277-1.863-.25-3.36.964-3.34 2.726zm2.605-4.351c2.387.039 3.852 1.242 5.332 2.421.758.606 1.27 1.114 2.243-.035 1.261-1.492 4.043-.25 4.402 1.883.352 2.098-.527 4.059-1.04 6.02-.26 1-1.523 1.433-2.651 1.09-2.04-.622-4.122-.965-6.227-1.235-2.07-.262-3.844-1.183-5.133-2.824-1.172-1.492-1.472-3.207-.62-4.965.8-1.664 2.288-2.27 3.694-2.355"/><g clip-path="url(#b)"><path fill="#231f20" d="M17.21 99.84c-2.812.43-4.796 1.695-6.194 3.824-.735 1.117-1.618 2.715-.309 3.617 1.227.848 2.367-.57 3.059-1.597 1.199-1.782 2.195-3.7 3.445-5.844zm-.065-1.352c.648.059 1.293.11 1.937.172.461.047 1.012.02 1.191.567.2.613-.222 1.156-.664 1.312-1.78.637-2.34 2.234-3.097 3.68-.852 1.633-1.746 3.226-3.395 4.215-1.055.629-2.187 1.078-3.324.285-1.152-.801-1.332-2.024-1.094-3.324.64-3.532 4.875-6.989 8.446-6.907"/></g><path fill="#231f20" d="M101.238 91.25c1.578-1.18 2.778-2.117 4.02-2.992.742-.516 1.46-1.035 1.789-1.899.281-.75.879-1.62.101-2.293-.863-.754-1.71-.039-2.359.504-1.941 1.625-2.789 3.868-3.55 6.68zM109 85.187c-.184 1.434-.781 2.797-2.07 3.801-2.157 1.676-4.72 2.899-5.942 5.614-.304.68-.996.507-1.25-.286-1.043-3.25 2.172-10.332 5.301-11.699 2.273-.992 4.102.13 3.961 2.57m7.742 6.86c.465-1.633.336-2.817-.844-4.008-.386 1.523-.332 2.727.844 4.008zm-2.887-2.79c-2.34 1.473-2.496 2.024-1.23 4.25.223.4.414 1.223 1.098.59.527-.484 1.691-.609 1.304-1.761-.336-.992-.742-1.961-1.172-3.078zm4.66 1.31c-.078 1.671-.242 2.898-2.027 3.292-.777.176-1.418 1.008-2.097 1.575-1.301 1.082-2.204.746-2.809-.746-.086-.22-.215-.418-.312-.633-1.551-3.27-1.442-3.72 1.44-5.903.33-.246.657-.5.985-.746 2.387-1.789 3.832-1.265 4.578 1.684.145.566.192 1.156.243 1.476m17.761 8.294c1.043-1.165 2.325-1.977 3.536-2.872.89-.656 1.265-1.672 1.445-2.738.086-.484.02-.973-.45-1.246-.425-.254-.808.047-1.128.266-2.336 1.558-3.055 3.957-3.403 6.59zm-1.777 1.296c.18-2.742.89-5.504 2.793-7.82 1.5-1.828 3.402-2.434 4.562-1.566 1.149.855 1.235 2.968.223 4.886-.476.918-1.187 1.606-2.062 2.125-1.356.801-2.286 2.008-3.176 3.254-.406.57-.469 1.598-1.578 1.23-.992-.324-.797-1.167-.762-2.109M44.922 94.2c.922-.173 1.879-.348 2.27-1.423.163-.46-.325-.601-.641-.601-1.133.004-1.504.844-1.785 1.75-.008.035.05.09.156.273zm1.973-3.829c1.394.02 3.148 2.434 3.136 4.313-.008 1.05-2.52 3.16-3.672 3.078-1.304-.102-3.562-1.825-3.582-2.742-.047-1.957 2.364-4.676 4.118-4.649m6.132-3.816c.25-.606.45-1.004.582-1.426.383-1.211 1.114-2.367.782-3.715-.188-.77-.59-1.496-1.48-1.492-.77 0-1.009.707-1.145 1.355-.383 1.871.101 3.532 1.261 5.278zm-2.867-4.051c.035-1.613.254-3.063 1.75-3.887 1-.55 1.973-.289 2.77.438 1.234 1.12 1.636 2.5 1.23 4.152-.457 1.875-1.472 3.578-1.594 5.57-.05.79-.718.817-1.273.235-1.754-1.856-2.754-4.035-2.883-6.508m43.078-.856c.621-.472 1.86-.312 2.235-1.421.117-.336-.22-1-.692-.622-.781.622-2.215.079-2.5 1.399-.082.39.215.789.957.644zm3.797-1.05c-.008.996-3.02 2.773-4.547 2.68-.863-.055-2.343-2.47-2.343-3.833 0-1.332 2.699-3.277 4.566-3.285 1.578-.008 2.36 1.488 2.324 4.438m56.86 24.894c-.172-.262.476-1.367-.536-1.203-.957.156-2.09.629-1.902 2.063.074.562-.004 1.242.941 1.078.989-.168 1.91-.368 1.497-1.938zm-3.833.79c.09-1.512-.03-2.856 1.86-3 .586-.044 1.148-.567 1.691-.91 1.594-.993 3.043-.34 3.297 1.503.43 3.16-2.148 5.68-5.3 5.102-1.688-.309-1.458-1.735-1.548-2.696M58.953 37.297c.992-.512 1.711-.863 2.406-1.262.383-.215.657-.57.43-1.023-.297-.59-.82-.371-1.219-.157-.808.438-1.289 1.165-1.617 2.442zm2.34-4.195c.887.027 1.59.441 1.906 1.28.418 1.106.192 2.184-.832 2.802-1.558.941-3.187 1.722-4.191 3.379-.305.496-.985.464-1.196-.266-.449-1.563 1.106-5.555 2.497-6.5a3.98 3.98 0 0 1 1.816-.695m78.437 68.882c1.106.125 1.903.098 2.375-.742a.458.458 0 0 0-.3-.687c-1.028-.18-1.555.437-2.075 1.43zm2.051-3c.625.036 1.278.375 1.664 1.114.434.812.278 1.586-.277 2.289-.629.8-1.52 1.062-2.484 1.12-.97.06-1.922-.097-2.797.665-.535.46-1.168.133-1.102-.703.102-1.399 3.442-4.485 4.996-4.485M88.547 64.46c.426.849.906 1.138 1.453 1.333.512.176 1.191.285 1.383-.277.246-.746-.598-.66-1.008-.805-.473-.16-1.004-.148-1.828-.25zm2.508 2.895c-2.149.032-4.578-2.105-4.692-3.8-.039-.582.176-1.274.817-.98 1.379.636 2.914.277 4.277.874.992.438 1.844.95 1.559 2.188-.274 1.187-1.157 1.699-1.961 1.718m39.047 58.461c1.921 0 3.77-.332 5.312-1.554 1.238-.977 1.188-2.14-.031-3.059-2.414-1.82-7.66-1.754-10.043.125-1.438 1.137-1.387 2.399.187 3.387 1.391.867 2.953 1.133 4.575 1.101zm.816-7.484c1.871.094 4.168.324 5.91 2.133 1.438 1.496 1.399 3.234-.039 4.691-2.805 2.844-9.922 3.02-12.848.317-1.62-1.5-1.636-3.387-.046-4.946 1.398-1.37 3.832-2.183 7.023-2.195"/></svg>