<svg xmlns="http://www.w3.org/2000/svg" width="250" height="250" version="1.0" viewBox="0 0 187.5 187.5"><defs><clipPath id="a"><path d="M3 39h182v144.855H3zm0 0"/></clipPath></defs><path d="M149.438 53.82a2.832 2.832 0 0 0 3.625-1.68l15.562-42.488 5.309 1.938-16.211 44.258a2.818 2.818 0 0 0 2.652 3.789 2.83 2.83 0 0 0 2.656-1.856l17.18-46.902a2.818 2.818 0 0 0-1.684-3.617l-10.617-3.88a2.83 2.83 0 0 0-3.625 1.684l-16.531 45.137a2.82 2.82 0 0 0 1.684 3.617zm-15.719-11.187a2.822 2.822 0 0 0 3.386-2.11l7.23-31.105 5.505 1.273-7.945 34.2a2.828 2.828 0 0 0 2.117 3.386c.21.047.425.07.64.07a2.825 2.825 0 0 0 2.75-2.183l8.582-36.945a2.795 2.795 0 0 0-.355-2.13 2.823 2.823 0 0 0-1.758-1.257l-11.012-2.55a2.845 2.845 0 0 0-3.39 2.113l-7.864 33.851a2.819 2.819 0 0 0 2.114 3.387zM127.8 62.457a8.479 8.479 0 0 1 6.36 2.867 2.813 2.813 0 0 0 2.117.953c.668 0 1.336-.23 1.871-.703a2.824 2.824 0 0 0 .25-3.984 14.15 14.15 0 0 0-10.597-4.778 2.823 2.823 0 1 0 0 5.645zm2.477-11.133a19.771 19.771 0 0 1 15.868 12.192 2.821 2.821 0 0 0 2.617 1.761 2.825 2.825 0 0 0 2.621-3.879 25.427 25.427 0 0 0-20.406-15.671 2.808 2.808 0 0 0-3.153 2.449 2.822 2.822 0 0 0 2.453 3.148zm0 0"/><g clip-path="url(#a)"><path d="M164.16 62.629c-1.46-.543-3.086.223-3.62 1.684l-7.767 21.3c-2.656-4.015-4.027-8.804-4.675-11.87h5.136a2.822 2.822 0 1 0 0-5.645H130.63a2.827 2.827 0 0 0-2.828 2.824 2.826 2.826 0 0 0 2.828 2.82h11.7c.76 4.11 2.878 12.301 8.171 18.117l-.598 1.63h-8.601c-.547-1.927-1.442-3.552-2.711-4.817-2.418-2.414-4.387-5.84-5.848-10.188l-5.36 1.797c1.747 5.18 4.169 9.344 7.216 12.383.234.234.441.516.629.824h-5.68l-9.098-24.949c-.449-1.23-1.191-2.285-2.094-3.16 4.098-4.508 6.622-10.473 6.622-17.027v-5.645a2.82 2.82 0 0 0-2.825-2.82H116.5c-9.844 0-18.379 5.625-22.605 13.812-4.227-8.187-12.762-13.812-22.606-13.812h-5.652a2.822 2.822 0 0 0-2.825 2.82v5.645c0 12.183 8.641 22.378 20.126 24.824a8.395 8.395 0 0 0-4.688 4.332 8.384 8.384 0 0 0-.281 6.472l3.465 9.508h-2.61c-.547-1.925-1.445-3.55-2.71-4.816-4.372-4.36-6.34-11.145-7.157-15.031 1.316-.243 2.332-1.336 2.332-2.72a2.823 2.823 0 0 0-2.824-2.823h-8.57l1.593-9.028a2.807 2.807 0 0 0-.465-2.11A2.84 2.84 0 0 0 59.2 55.8c-11.683-2.062-22.972 2.825-29.695 11.645l-2.254-6.187a2.824 2.824 0 0 0-3.621-1.684C9.176 64.824 1.117 79.875 4.152 94.492a2.81 2.81 0 0 0-.656 2.176c.258 1.988 6.594 48.316 42.363 68.969v9.668c0 4.668 3.801 8.465 8.477 8.465h79.117c4.676 0 8.477-3.797 8.477-8.465v-9.668c35.77-20.653 42.11-66.98 42.363-68.969.066-.508-.055-.996-.254-1.457 1.828-14.125-6.312-27.652-19.879-32.582zm.672 6.41a24.824 24.824 0 0 1 13.734 24.45h-22.652zm-41.297 24.45h-3.402c-1.399-4.762-3.723-7.93-6.93-9.427-4.969-2.312-8.808-7.054-11.078-10.453 4.426-.445 8.508-2.043 11.973-4.468.468.328.843.773 1.043 1.328zm-21.664 0c-1.2-1.7-2.637-2.966-4.308-3.743-5.555-2.59-9.704-8.215-11.817-11.598l10.215-3.71c2.219 3.765 7.355 11.25 14.852 14.738 1.55.722 2.624 2.43 3.363 4.312zM116.5 45.526h2.824v2.825c0 10.886-8.875 19.746-19.777 19.746h-2.828v-2.82c0-10.891 8.875-19.75 19.781-19.75zm-48.035 2.825v-2.825h2.824c10.906 0 19.777 8.86 19.777 19.75v2.82h-2.824c-10.906 0-19.777-8.859-19.777-19.745zm16.484 38.285c2.074 2.453 4.672 4.949 7.739 6.851h-5.239zm-12.203 6.851H62.184c-.547-1.925-1.442-3.55-2.711-4.816-4.336-4.324-6.305-11.031-7.133-14.93h10.87c.798 4.297 3.06 13.082 8.907 18.922.238.234.442.516.63.824zM48.684 81.441c1.398 3.801 3.535 7.965 6.793 11.223.238.234.445.516.632.824h-7.425zm6.722-20.418-1.25 7.075h-2.648c-4.672 0-8.477 3.797-8.477 8.465v16.925H30.148c-1.23-3.832-1.57-7.902-.859-11.91 2.227-12.598 13.59-21.332 26.117-20.555zm-32.445 4.961 2.84 7.797c-.93 2.145-1.653 4.414-2.078 6.817a30.437 30.437 0 0 0 .5 12.89H9.703c-2.36-11.054 3.078-22.445 13.258-27.504zm110.492 112.141H54.336a2.828 2.828 0 0 1-2.828-2.82v-8.465h84.77v8.465a2.825 2.825 0 0 1-2.825 2.82zm4.922-16.926h-88.96c-28.74-16.09-37.661-51.308-39.763-62.066h168.489c-2.094 10.75-10.98 45.949-39.766 62.066zm0 0"/></g><path d="M24.055 109.535a101.88 101.88 0 0 1-.864-2.75 2.826 2.826 0 0 0-3.52-1.89 2.817 2.817 0 0 0-1.894 3.511c.282.934.582 1.899.91 2.895a2.828 2.828 0 0 0 3.567 1.797 2.818 2.818 0 0 0 1.8-3.563zm3.097 8.242a2.826 2.826 0 0 0-3.703-1.492 2.816 2.816 0 0 0-1.496 3.7c4.281 10.07 9.738 18.6 16.211 25.355a2.829 2.829 0 0 0 3.996.086 2.817 2.817 0 0 0 .09-3.988c-6-6.258-11.082-14.22-15.098-23.66zm0 0"/></svg>